<?xml version="1.0" encoding="UTF-8"?>
<!DOCTYPE svg PUBLIC "-//W3C//DTD SVG 1.1//EN" "http://www.w3.org/Graphics/SVG/1.1/DTD/svg11.dtd">
<svg width="176mm" height="92mm" viewBox="0 0 17600 9200" version="1.1" xmlns="http://www.w3.org/2000/svg" stroke-width="28.222" stroke-linejoin="round" xml:space="preserve">
 <path fill="rgb(255,255,255)" stroke="none" d="M 8825,9190 L 6,9190 6,0 17643,0 17643,9190 8825,9190 Z"/>
 <path fill="none" stroke="rgb(179,179,179)" stroke-linejoin="round" d="M 6995,8360 L 1958,8360 1958,382 12031,382 12031,8360 6995,8360 Z"/>
 <path fill="none" stroke="rgb(179,179,179)" stroke-linejoin="round" d="M 12031,8359 L 1958,8359"/>
 <path fill="none" stroke="rgb(179,179,179)" stroke-linejoin="round" d="M 12031,7561 L 1958,7561"/>
 <path fill="none" stroke="rgb(179,179,179)" stroke-linejoin="round" d="M 12031,6763 L 1958,6763"/>
 <path fill="none" stroke="rgb(179,179,179)" stroke-linejoin="round" d="M 12031,5965 L 1958,5965"/>
 <path fill="none" stroke="rgb(179,179,179)" stroke-linejoin="round" d="M 12031,5167 L 1958,5167"/>
 <path fill="none" stroke="rgb(179,179,179)" stroke-linejoin="round" d="M 12031,4370 L 1958,4370"/>
 <path fill="none" stroke="rgb(179,179,179)" stroke-linejoin="round" d="M 12031,3572 L 1958,3572"/>
 <path fill="none" stroke="rgb(179,179,179)" stroke-linejoin="round" d="M 12031,2774 L 1958,2774"/>
 <path fill="none" stroke="rgb(179,179,179)" stroke-linejoin="round" d="M 12031,1976 L 1958,1976"/>
 <path fill="none" stroke="rgb(179,179,179)" stroke-linejoin="round" d="M 12031,1178 L 1958,1178"/>
 <path fill="none" stroke="rgb(179,179,179)" stroke-linejoin="round" d="M 12031,380 L 1958,380"/>
 <path fill="none" stroke="rgb(179,179,179)" stroke-linejoin="round" d="M 1958,8509 L 1958,8359"/>
 <path fill="none" stroke="rgb(179,179,179)" stroke-linejoin="round" d="M 1958,8509 L 1958,8359"/>
 <path fill="none" stroke="rgb(179,179,179)" stroke-linejoin="round" d="M 3397,8509 L 3397,8359"/>
 <path fill="none" stroke="rgb(179,179,179)" stroke-linejoin="round" d="M 3397,8509 L 3397,8359"/>
 <path fill="none" stroke="rgb(179,179,179)" stroke-linejoin="round" d="M 4836,8509 L 4836,8359"/>
 <path fill="none" stroke="rgb(179,179,179)" stroke-linejoin="round" d="M 4836,8509 L 4836,8359"/>
 <path fill="none" stroke="rgb(179,179,179)" stroke-linejoin="round" d="M 6275,8509 L 6275,8359"/>
 <path fill="none" stroke="rgb(179,179,179)" stroke-linejoin="round" d="M 6275,8509 L 6275,8359"/>
 <path fill="none" stroke="rgb(179,179,179)" stroke-linejoin="round" d="M 7714,8509 L 7714,8359"/>
 <path fill="none" stroke="rgb(179,179,179)" stroke-linejoin="round" d="M 7714,8509 L 7714,8359"/>
 <path fill="none" stroke="rgb(179,179,179)" stroke-linejoin="round" d="M 9152,8509 L 9152,8359"/>
 <path fill="none" stroke="rgb(179,179,179)" stroke-linejoin="round" d="M 9152,8509 L 9152,8359"/>
 <path fill="none" stroke="rgb(179,179,179)" stroke-linejoin="round" d="M 10591,8509 L 10591,8359"/>
 <path fill="none" stroke="rgb(179,179,179)" stroke-linejoin="round" d="M 10591,8509 L 10591,8359"/>
 <path fill="none" stroke="rgb(179,179,179)" stroke-linejoin="round" d="M 12031,8509 L 12031,8359"/>
 <path fill="none" stroke="rgb(179,179,179)" stroke-linejoin="round" d="M 12031,8509 L 12031,8359"/>
 <path fill="none" stroke="rgb(179,179,179)" stroke-linejoin="round" d="M 1958,8359 L 12031,8359"/>
 <path fill="none" stroke="rgb(179,179,179)" stroke-linejoin="round" d="M 1808,8359 L 1958,8359"/>
 <path fill="none" stroke="rgb(179,179,179)" stroke-linejoin="round" d="M 1808,8359 L 1958,8359"/>
 <path fill="none" stroke="rgb(179,179,179)" stroke-linejoin="round" d="M 1808,7561 L 1958,7561"/>
 <path fill="none" stroke="rgb(179,179,179)" stroke-linejoin="round" d="M 1808,7561 L 1958,7561"/>
 <path fill="none" stroke="rgb(179,179,179)" stroke-linejoin="round" d="M 1808,6763 L 1958,6763"/>
 <path fill="none" stroke="rgb(179,179,179)" stroke-linejoin="round" d="M 1808,6763 L 1958,6763"/>
 <path fill="none" stroke="rgb(179,179,179)" stroke-linejoin="round" d="M 1808,5965 L 1958,5965"/>
 <path fill="none" stroke="rgb(179,179,179)" stroke-linejoin="round" d="M 1808,5965 L 1958,5965"/>
 <path fill="none" stroke="rgb(179,179,179)" stroke-linejoin="round" d="M 1808,5167 L 1958,5167"/>
 <path fill="none" stroke="rgb(179,179,179)" stroke-linejoin="round" d="M 1808,5167 L 1958,5167"/>
 <path fill="none" stroke="rgb(179,179,179)" stroke-linejoin="round" d="M 1808,4370 L 1958,4370"/>
 <path fill="none" stroke="rgb(179,179,179)" stroke-linejoin="round" d="M 1808,4370 L 1958,4370"/>
 <path fill="none" stroke="rgb(179,179,179)" stroke-linejoin="round" d="M 1808,3572 L 1958,3572"/>
 <path fill="none" stroke="rgb(179,179,179)" stroke-linejoin="round" d="M 1808,3572 L 1958,3572"/>
 <path fill="none" stroke="rgb(179,179,179)" stroke-linejoin="round" d="M 1808,2774 L 1958,2774"/>
 <path fill="none" stroke="rgb(179,179,179)" stroke-linejoin="round" d="M 1808,2774 L 1958,2774"/>
 <path fill="none" stroke="rgb(179,179,179)" stroke-linejoin="round" d="M 1808,1976 L 1958,1976"/>
 <path fill="none" stroke="rgb(179,179,179)" stroke-linejoin="round" d="M 1808,1976 L 1958,1976"/>
 <path fill="none" stroke="rgb(179,179,179)" stroke-linejoin="round" d="M 1808,1178 L 1958,1178"/>
 <path fill="none" stroke="rgb(179,179,179)" stroke-linejoin="round" d="M 1808,1178 L 1958,1178"/>
 <path fill="none" stroke="rgb(179,179,179)" stroke-linejoin="round" d="M 1808,380 L 1958,380"/>
 <path fill="none" stroke="rgb(179,179,179)" stroke-linejoin="round" d="M 1808,380 L 1958,380"/>
 <path fill="none" stroke="rgb(179,179,179)" stroke-linejoin="round" d="M 1958,8359 L 1958,380"/>
 <path fill="none" stroke="rgb(179,179,179)" stroke-linejoin="round" d="M 12181,8359 L 12031,8359"/>
 <path fill="none" stroke="rgb(179,179,179)" stroke-linejoin="round" d="M 12181,8359 L 12031,8359"/>
 <path fill="none" stroke="rgb(179,179,179)" stroke-linejoin="round" d="M 12181,7472 L 12031,7472"/>
 <path fill="none" stroke="rgb(179,179,179)" stroke-linejoin="round" d="M 12181,7472 L 12031,7472"/>
 <path fill="none" stroke="rgb(179,179,179)" stroke-linejoin="round" d="M 12181,6585 L 12031,6585"/>
 <path fill="none" stroke="rgb(179,179,179)" stroke-linejoin="round" d="M 12181,6585 L 12031,6585"/>
 <path fill="none" stroke="rgb(179,179,179)" stroke-linejoin="round" d="M 12181,5699 L 12031,5699"/>
 <path fill="none" stroke="rgb(179,179,179)" stroke-linejoin="round" d="M 12181,5699 L 12031,5699"/>
 <path fill="none" stroke="rgb(179,179,179)" stroke-linejoin="round" d="M 12181,4812 L 12031,4812"/>
 <path fill="none" stroke="rgb(179,179,179)" stroke-linejoin="round" d="M 12181,4812 L 12031,4812"/>
 <path fill="none" stroke="rgb(179,179,179)" stroke-linejoin="round" d="M 12181,3927 L 12031,3927"/>
 <path fill="none" stroke="rgb(179,179,179)" stroke-linejoin="round" d="M 12181,3927 L 12031,3927"/>
 <path fill="none" stroke="rgb(179,179,179)" stroke-linejoin="round" d="M 12181,3040 L 12031,3040"/>
 <path fill="none" stroke="rgb(179,179,179)" stroke-linejoin="round" d="M 12181,3040 L 12031,3040"/>
 <path fill="none" stroke="rgb(179,179,179)" stroke-linejoin="round" d="M 12181,2154 L 12031,2154"/>
 <path fill="none" stroke="rgb(179,179,179)" stroke-linejoin="round" d="M 12181,2154 L 12031,2154"/>
 <path fill="none" stroke="rgb(179,179,179)" stroke-linejoin="round" d="M 12181,1267 L 12031,1267"/>
 <path fill="none" stroke="rgb(179,179,179)" stroke-linejoin="round" d="M 12181,1267 L 12031,1267"/>
 <path fill="none" stroke="rgb(179,179,179)" stroke-linejoin="round" d="M 12181,381 L 12031,381"/>
 <path fill="none" stroke="rgb(179,179,179)" stroke-linejoin="round" d="M 12181,381 L 12031,381"/>
 <path fill="none" stroke="rgb(179,179,179)" stroke-linejoin="round" d="M 12031,8359 L 12031,381"/>
 <path fill="none" stroke="rgb(0,69,134)" stroke-width="80" stroke-linejoin="round" d="M 1958,720 L 3397,827 4836,884 6275,891 7714,918 9152,930 10591,937 12031,943"/>
 <path fill="rgb(0,69,134)" stroke="none" d="M 1833,595 L 1833,845 2083,845 2083,595 1833,595 Z"/>
 <path fill="none" stroke="rgb(0,69,134)" stroke-linejoin="round" d="M 1833,595 L 1833,845 2083,845 2083,595 1833,595 Z"/>
 <path fill="rgb(0,69,134)" stroke="none" d="M 3272,702 L 3272,952 3522,952 3522,702 3272,702 Z"/>
 <path fill="none" stroke="rgb(0,69,134)" stroke-linejoin="round" d="M 3272,702 L 3272,952 3522,952 3522,702 3272,702 Z"/>
 <path fill="rgb(0,69,134)" stroke="none" d="M 4711,759 L 4711,1009 4961,1009 4961,759 4711,759 Z"/>
 <path fill="none" stroke="rgb(0,69,134)" stroke-linejoin="round" d="M 4711,759 L 4711,1009 4961,1009 4961,759 4711,759 Z"/>
 <path fill="rgb(0,69,134)" stroke="none" d="M 6150,766 L 6150,1016 6400,1016 6400,766 6150,766 Z"/>
 <path fill="none" stroke="rgb(0,69,134)" stroke-linejoin="round" d="M 6150,766 L 6150,1016 6400,1016 6400,766 6150,766 Z"/>
 <path fill="rgb(0,69,134)" stroke="none" d="M 7589,793 L 7589,1043 7839,1043 7839,793 7589,793 Z"/>
 <path fill="none" stroke="rgb(0,69,134)" stroke-linejoin="round" d="M 7589,793 L 7589,1043 7839,1043 7839,793 7589,793 Z"/>
 <path fill="rgb(0,69,134)" stroke="none" d="M 9027,805 L 9027,1055 9277,1055 9277,805 9027,805 Z"/>
 <path fill="none" stroke="rgb(0,69,134)" stroke-linejoin="round" d="M 9027,805 L 9027,1055 9277,1055 9277,805 9027,805 Z"/>
 <path fill="rgb(0,69,134)" stroke="none" d="M 10466,812 L 10466,1062 10716,1062 10716,812 10466,812 Z"/>
 <path fill="none" stroke="rgb(0,69,134)" stroke-linejoin="round" d="M 10466,812 L 10466,1062 10716,1062 10716,812 10466,812 Z"/>
 <path fill="rgb(0,69,134)" stroke="none" d="M 11906,818 L 11906,1068 12156,1068 12156,818 11906,818 Z"/>
 <path fill="none" stroke="rgb(0,69,134)" stroke-linejoin="round" d="M 11906,818 L 11906,1068 12156,1068 12156,818 11906,818 Z"/>
 <path fill="none" stroke="rgb(255,66,14)" stroke-width="80" stroke-linejoin="round" d="M 1958,7578 L 3397,6958 4836,6248 6275,5397 7714,4335 9152,3377 10591,2313 12031,1090"/>
 <path fill="rgb(255,66,14)" stroke="none" d="M 1833,7578 L 1958,7703 2083,7578 1958,7453 1833,7578 Z"/>
 <path fill="none" stroke="rgb(255,66,14)" stroke-linejoin="round" d="M 1833,7578 L 1958,7703 2083,7578 1958,7453 1833,7578 Z"/>
 <path fill="rgb(255,66,14)" stroke="none" d="M 3272,6958 L 3397,7083 3522,6958 3397,6833 3272,6958 Z"/>
 <path fill="none" stroke="rgb(255,66,14)" stroke-linejoin="round" d="M 3272,6958 L 3397,7083 3522,6958 3397,6833 3272,6958 Z"/>
 <path fill="rgb(255,66,14)" stroke="none" d="M 4711,6248 L 4836,6373 4961,6248 4836,6123 4711,6248 Z"/>
 <path fill="none" stroke="rgb(255,66,14)" stroke-linejoin="round" d="M 4711,6248 L 4836,6373 4961,6248 4836,6123 4711,6248 Z"/>
 <path fill="rgb(255,66,14)" stroke="none" d="M 6150,5397 L 6275,5522 6400,5397 6275,5272 6150,5397 Z"/>
 <path fill="none" stroke="rgb(255,66,14)" stroke-linejoin="round" d="M 6150,5397 L 6275,5522 6400,5397 6275,5272 6150,5397 Z"/>
 <path fill="rgb(255,66,14)" stroke="none" d="M 7589,4335 L 7714,4460 7839,4335 7714,4210 7589,4335 Z"/>
 <path fill="none" stroke="rgb(255,66,14)" stroke-linejoin="round" d="M 7589,4335 L 7714,4460 7839,4335 7714,4210 7589,4335 Z"/>
 <path fill="rgb(255,66,14)" stroke="none" d="M 9027,3377 L 9152,3502 9277,3377 9152,3252 9027,3377 Z"/>
 <path fill="none" stroke="rgb(255,66,14)" stroke-linejoin="round" d="M 9027,3377 L 9152,3502 9277,3377 9152,3252 9027,3377 Z"/>
 <path fill="rgb(255,66,14)" stroke="none" d="M 10466,2313 L 10591,2438 10716,2313 10591,2188 10466,2313 Z"/>
 <path fill="none" stroke="rgb(255,66,14)" stroke-linejoin="round" d="M 10466,2313 L 10591,2438 10716,2313 10591,2188 10466,2313 Z"/>
 <path fill="rgb(255,66,14)" stroke="none" d="M 11906,1090 L 12031,1215 12156,1090 12031,965 11906,1090 Z"/>
 <path fill="none" stroke="rgb(255,66,14)" stroke-linejoin="round" d="M 11906,1090 L 12031,1215 12156,1090 12031,965 11906,1090 Z"/>
 <path fill="none" stroke="rgb(255,211,32)" stroke-width="80" stroke-linejoin="round" d="M 1958,2986 L 3397,2204 4836,2058 6275,1971 7714,1949 9152,1916 10591,1898 12031,1898"/>
 <path fill="rgb(255,211,32)" stroke="none" d="M 1833,2861 L 1958,3111 2083,2861 1833,2861 Z"/>
 <path fill="none" stroke="rgb(255,211,32)" stroke-linejoin="round" d="M 1833,2861 L 1958,3111 2083,2861 1833,2861 Z"/>
 <path fill="rgb(255,211,32)" stroke="none" d="M 3272,2079 L 3397,2329 3522,2079 3272,2079 Z"/>
 <path fill="none" stroke="rgb(255,211,32)" stroke-linejoin="round" d="M 3272,2079 L 3397,2329 3522,2079 3272,2079 Z"/>
 <path fill="rgb(255,211,32)" stroke="none" d="M 4711,1933 L 4836,2183 4961,1933 4711,1933 Z"/>
 <path fill="none" stroke="rgb(255,211,32)" stroke-linejoin="round" d="M 4711,1933 L 4836,2183 4961,1933 4711,1933 Z"/>
 <path fill="rgb(255,211,32)" stroke="none" d="M 6150,1846 L 6275,2096 6400,1846 6150,1846 Z"/>
 <path fill="none" stroke="rgb(255,211,32)" stroke-linejoin="round" d="M 6150,1846 L 6275,2096 6400,1846 6150,1846 Z"/>
 <path fill="rgb(255,211,32)" stroke="none" d="M 7589,1824 L 7714,2074 7839,1824 7589,1824 Z"/>
 <path fill="none" stroke="rgb(255,211,32)" stroke-linejoin="round" d="M 7589,1824 L 7714,2074 7839,1824 7589,1824 Z"/>
 <path fill="rgb(255,211,32)" stroke="none" d="M 9027,1791 L 9152,2041 9277,1791 9027,1791 Z"/>
 <path fill="none" stroke="rgb(255,211,32)" stroke-linejoin="round" d="M 9027,1791 L 9152,2041 9277,1791 9027,1791 Z"/>
 <path fill="rgb(255,211,32)" stroke="none" d="M 10466,1773 L 10591,2023 10716,1773 10466,1773 Z"/>
 <path fill="none" stroke="rgb(255,211,32)" stroke-linejoin="round" d="M 10466,1773 L 10591,2023 10716,1773 10466,1773 Z"/>
 <path fill="rgb(255,211,32)" stroke="none" d="M 11906,1773 L 12031,2023 12156,1773 11906,1773 Z"/>
 <path fill="none" stroke="rgb(255,211,32)" stroke-linejoin="round" d="M 11906,1773 L 12031,2023 12156,1773 11906,1773 Z"/>
 <text class="TextShape"><tspan class="TextParagraph" font-family="Liberation Sans" font-size="353px" font-weight="400"><tspan class="TextPosition" x="1773" y="8927"><tspan fill="rgb(0,0,0)" stroke="none">20</tspan></tspan></tspan></text>
 <text class="TextShape"><tspan class="TextParagraph" font-family="Liberation Sans" font-size="353px" font-weight="400"><tspan class="TextPosition" x="3212" y="8927"><tspan fill="rgb(0,0,0)" stroke="none">40</tspan></tspan></tspan></text>
 <text class="TextShape"><tspan class="TextParagraph" font-family="Liberation Sans" font-size="353px" font-weight="400"><tspan class="TextPosition" x="4651" y="8927"><tspan fill="rgb(0,0,0)" stroke="none">60</tspan></tspan></tspan></text>
 <text class="TextShape"><tspan class="TextParagraph" font-family="Liberation Sans" font-size="353px" font-weight="400"><tspan class="TextPosition" x="6090" y="8927"><tspan fill="rgb(0,0,0)" stroke="none">80</tspan></tspan></tspan></text>
 <text class="TextShape"><tspan class="TextParagraph" font-family="Liberation Sans" font-size="353px" font-weight="400"><tspan class="TextPosition" x="7436" y="8927"><tspan fill="rgb(0,0,0)" stroke="none">100</tspan></tspan></tspan></text>
 <text class="TextShape"><tspan class="TextParagraph" font-family="Liberation Sans" font-size="353px" font-weight="400"><tspan class="TextPosition" x="8875" y="8927"><tspan fill="rgb(0,0,0)" stroke="none">120</tspan></tspan></tspan></text>
 <text class="TextShape"><tspan class="TextParagraph" font-family="Liberation Sans" font-size="353px" font-weight="400"><tspan class="TextPosition" x="10314" y="8927"><tspan fill="rgb(0,0,0)" stroke="none">140</tspan></tspan></tspan></text>
 <text class="TextShape"><tspan class="TextParagraph" font-family="Liberation Sans" font-size="353px" font-weight="400"><tspan class="TextPosition" x="11754" y="8927"><tspan fill="rgb(0,0,0)" stroke="none">160</tspan></tspan></tspan></text>
 <text class="TextShape"><tspan class="TextParagraph" font-family="Liberation Sans" font-size="353px" font-weight="400"><tspan class="TextPosition" x="729" y="8480"><tspan fill="rgb(0,0,0)" stroke="none">0.00%</tspan></tspan></tspan></text>
 <text class="TextShape"><tspan class="TextParagraph" font-family="Liberation Sans" font-size="353px" font-weight="400"><tspan class="TextPosition" x="544" y="7682"><tspan fill="rgb(0,0,0)" stroke="none">10.00%</tspan></tspan></tspan></text>
 <text class="TextShape"><tspan class="TextParagraph" font-family="Liberation Sans" font-size="353px" font-weight="400"><tspan class="TextPosition" x="544" y="6884"><tspan fill="rgb(0,0,0)" stroke="none">20.00%</tspan></tspan></tspan></text>
 <text class="TextShape"><tspan class="TextParagraph" font-family="Liberation Sans" font-size="353px" font-weight="400"><tspan class="TextPosition" x="544" y="6086"><tspan fill="rgb(0,0,0)" stroke="none">30.00%</tspan></tspan></tspan></text>
 <text class="TextShape"><tspan class="TextParagraph" font-family="Liberation Sans" font-size="353px" font-weight="400"><tspan class="TextPosition" x="544" y="5288"><tspan fill="rgb(0,0,0)" stroke="none">40.00%</tspan></tspan></tspan></text>
 <text class="TextShape"><tspan class="TextParagraph" font-family="Liberation Sans" font-size="353px" font-weight="400"><tspan class="TextPosition" x="544" y="4490"><tspan fill="rgb(0,0,0)" stroke="none">50.00%</tspan></tspan></tspan></text>
 <text class="TextShape"><tspan class="TextParagraph" font-family="Liberation Sans" font-size="353px" font-weight="400"><tspan class="TextPosition" x="544" y="3692"><tspan fill="rgb(0,0,0)" stroke="none">60.00%</tspan></tspan></tspan></text>
 <text class="TextShape"><tspan class="TextParagraph" font-family="Liberation Sans" font-size="353px" font-weight="400"><tspan class="TextPosition" x="544" y="2894"><tspan fill="rgb(0,0,0)" stroke="none">70.00%</tspan></tspan></tspan></text>
 <text class="TextShape"><tspan class="TextParagraph" font-family="Liberation Sans" font-size="353px" font-weight="400"><tspan class="TextPosition" x="544" y="2096"><tspan fill="rgb(0,0,0)" stroke="none">80.00%</tspan></tspan></tspan></text>
 <text class="TextShape"><tspan class="TextParagraph" font-family="Liberation Sans" font-size="353px" font-weight="400"><tspan class="TextPosition" x="544" y="1298"><tspan fill="rgb(0,0,0)" stroke="none">90.00%</tspan></tspan></tspan></text>
 <text class="TextShape"><tspan class="TextParagraph" font-family="Liberation Sans" font-size="353px" font-weight="400"><tspan class="TextPosition" x="359" y="500"><tspan fill="rgb(0,0,0)" stroke="none">100.00%</tspan></tspan></tspan></text>
 <text class="TextShape"><tspan class="TextParagraph" font-family="Liberation Sans" font-size="353px" font-weight="400"><tspan class="TextPosition" x="12281" y="8480"><tspan fill="rgb(0,0,0)" stroke="none">0</tspan></tspan></tspan></text>
 <text class="TextShape"><tspan class="TextParagraph" font-family="Liberation Sans" font-size="353px" font-weight="400"><tspan class="TextPosition" x="12281" y="7593"><tspan fill="rgb(0,0,0)" stroke="none">0.5</tspan></tspan></tspan></text>
 <text class="TextShape"><tspan class="TextParagraph" font-family="Liberation Sans" font-size="353px" font-weight="400"><tspan class="TextPosition" x="12281" y="6706"><tspan fill="rgb(0,0,0)" stroke="none">1</tspan></tspan></tspan></text>
 <text class="TextShape"><tspan class="TextParagraph" font-family="Liberation Sans" font-size="353px" font-weight="400"><tspan class="TextPosition" x="12281" y="5820"><tspan fill="rgb(0,0,0)" stroke="none">1.5</tspan></tspan></tspan></text>
 <text class="TextShape"><tspan class="TextParagraph" font-family="Liberation Sans" font-size="353px" font-weight="400"><tspan class="TextPosition" x="12281" y="4933"><tspan fill="rgb(0,0,0)" stroke="none">2</tspan></tspan></tspan></text>
 <text class="TextShape"><tspan class="TextParagraph" font-family="Liberation Sans" font-size="353px" font-weight="400"><tspan class="TextPosition" x="12281" y="4047"><tspan fill="rgb(0,0,0)" stroke="none">2.5</tspan></tspan></tspan></text>
 <text class="TextShape"><tspan class="TextParagraph" font-family="Liberation Sans" font-size="353px" font-weight="400"><tspan class="TextPosition" x="12281" y="3160"><tspan fill="rgb(0,0,0)" stroke="none">3</tspan></tspan></tspan></text>
 <text class="TextShape"><tspan class="TextParagraph" font-family="Liberation Sans" font-size="353px" font-weight="400"><tspan class="TextPosition" x="12281" y="2274"><tspan fill="rgb(0,0,0)" stroke="none">3.5</tspan></tspan></tspan></text>
 <text class="TextShape"><tspan class="TextParagraph" font-family="Liberation Sans" font-size="353px" font-weight="400"><tspan class="TextPosition" x="12281" y="1387"><tspan fill="rgb(0,0,0)" stroke="none">4</tspan></tspan></tspan></text>
 <text class="TextShape"><tspan class="TextParagraph" font-family="Liberation Sans" font-size="353px" font-weight="400"><tspan class="TextPosition" x="12281" y="501"><tspan fill="rgb(0,0,0)" stroke="none">4.5</tspan></tspan></tspan></text>
 <path fill="none" stroke="rgb(0,69,134)" stroke-width="80" stroke-linejoin="round" d="M 14140,4096 L 14940,4096"/>
 <path fill="rgb(0,69,134)" stroke="none" d="M 14434,3991 L 14434,4202 14645,4202 14645,3991 14434,3991 Z"/>
 <path fill="none" stroke="rgb(0,69,134)" stroke-linejoin="round" d="M 14434,3991 L 14434,4202 14645,4202 14645,3991 14434,3991 Z"/>
 <path fill="none" stroke="rgb(255,66,14)" stroke-width="80" stroke-linejoin="round" d="M 14140,4594 L 14940,4594"/>
 <path fill="rgb(255,66,14)" stroke="none" d="M 14434,4594 L 14540,4699 14645,4594 14540,4489 14434,4594 Z"/>
 <path fill="none" stroke="rgb(255,66,14)" stroke-linejoin="round" d="M 14434,4594 L 14540,4699 14645,4594 14540,4489 14434,4594 Z"/>
 <path fill="none" stroke="rgb(255,211,32)" stroke-width="80" stroke-linejoin="round" d="M 14140,5091 L 14940,5091"/>
 <path fill="rgb(255,211,32)" stroke="none" d="M 14434,4986 L 14540,5197 14645,4986 14434,4986 Z"/>
 <path fill="none" stroke="rgb(255,211,32)" stroke-linejoin="round" d="M 14434,4986 L 14540,5197 14645,4986 14434,4986 Z"/>
 <text class="TextShape"><tspan class="TextParagraph" font-family="Liberation Sans" font-size="353px" font-weight="400"><tspan class="TextPosition" x="15040" y="4216"><tspan fill="rgb(0,0,0)" stroke="none">Zhoda</tspan></tspan></tspan></text>
 <text class="TextShape"><tspan class="TextParagraph" font-family="Liberation Sans" font-size="353px" font-weight="400"><tspan class="TextPosition" x="15040" y="4713"><tspan fill="rgb(0,0,0)" stroke="none">Čas</tspan></tspan></tspan></text>
 <text class="TextShape"><tspan class="TextParagraph" font-family="Liberation Sans" font-size="353px" font-weight="400"><tspan class="TextPosition" x="15040" y="5211"><tspan fill="rgb(0,0,0)" stroke="none">Podiel veľkosti</tspan></tspan></tspan></text>
 <text class="TextShape" transform="translate(13498,5084) rotate(-90) translate(-13498,-5084)"><tspan class="TextParagraph" font-family="Liberation Sans" font-size="318px" font-weight="400"><tspan class="TextPosition" x="13498" y="5084"><tspan fill="rgb(0,0,0)" stroke="none">Čas [s]</tspan></tspan></tspan></text>
</svg>