<?xml version="1.0" encoding="UTF-8"?>
<!DOCTYPE svg PUBLIC "-//W3C//DTD SVG 1.1//EN" "http://www.w3.org/Graphics/SVG/1.1/DTD/svg11.dtd">
<svg width="176mm" height="92mm" viewBox="0 0 17600 9200" version="1.1" xmlns="http://www.w3.org/2000/svg" stroke-width="28.222" stroke-linejoin="round" xml:space="preserve">
 <path fill="rgb(255,255,255)" stroke="none" d="M 8825,9190 L 6,9190 6,0 17643,0 17643,9190 8825,9190 Z"/>
 <path fill="none" stroke="rgb(179,179,179)" stroke-linejoin="round" d="M 6995,8360 L 1958,8360 1958,382 12031,382 12031,8360 6995,8360 Z"/>
 <path fill="none" stroke="rgb(179,179,179)" stroke-linejoin="round" d="M 12031,8359 L 1958,8359"/>
 <path fill="none" stroke="rgb(179,179,179)" stroke-linejoin="round" d="M 12031,7561 L 1958,7561"/>
 <path fill="none" stroke="rgb(179,179,179)" stroke-linejoin="round" d="M 12031,6763 L 1958,6763"/>
 <path fill="none" stroke="rgb(179,179,179)" stroke-linejoin="round" d="M 12031,5965 L 1958,5965"/>
 <path fill="none" stroke="rgb(179,179,179)" stroke-linejoin="round" d="M 12031,5167 L 1958,5167"/>
 <path fill="none" stroke="rgb(179,179,179)" stroke-linejoin="round" d="M 12031,4370 L 1958,4370"/>
 <path fill="none" stroke="rgb(179,179,179)" stroke-linejoin="round" d="M 12031,3572 L 1958,3572"/>
 <path fill="none" stroke="rgb(179,179,179)" stroke-linejoin="round" d="M 12031,2774 L 1958,2774"/>
 <path fill="none" stroke="rgb(179,179,179)" stroke-linejoin="round" d="M 12031,1976 L 1958,1976"/>
 <path fill="none" stroke="rgb(179,179,179)" stroke-linejoin="round" d="M 12031,1178 L 1958,1178"/>
 <path fill="none" stroke="rgb(179,179,179)" stroke-linejoin="round" d="M 12031,380 L 1958,380"/>
 <path fill="none" stroke="rgb(179,179,179)" stroke-linejoin="round" d="M 1958,8509 L 1958,8359"/>
 <path fill="none" stroke="rgb(179,179,179)" stroke-linejoin="round" d="M 1958,8509 L 1958,8359"/>
 <path fill="none" stroke="rgb(179,179,179)" stroke-linejoin="round" d="M 3217,8509 L 3217,8359"/>
 <path fill="none" stroke="rgb(179,179,179)" stroke-linejoin="round" d="M 3217,8509 L 3217,8359"/>
 <path fill="none" stroke="rgb(179,179,179)" stroke-linejoin="round" d="M 4476,8509 L 4476,8359"/>
 <path fill="none" stroke="rgb(179,179,179)" stroke-linejoin="round" d="M 4476,8509 L 4476,8359"/>
 <path fill="none" stroke="rgb(179,179,179)" stroke-linejoin="round" d="M 5735,8509 L 5735,8359"/>
 <path fill="none" stroke="rgb(179,179,179)" stroke-linejoin="round" d="M 5735,8509 L 5735,8359"/>
 <path fill="none" stroke="rgb(179,179,179)" stroke-linejoin="round" d="M 6995,8509 L 6995,8359"/>
 <path fill="none" stroke="rgb(179,179,179)" stroke-linejoin="round" d="M 6995,8509 L 6995,8359"/>
 <path fill="none" stroke="rgb(179,179,179)" stroke-linejoin="round" d="M 8254,8509 L 8254,8359"/>
 <path fill="none" stroke="rgb(179,179,179)" stroke-linejoin="round" d="M 8254,8509 L 8254,8359"/>
 <path fill="none" stroke="rgb(179,179,179)" stroke-linejoin="round" d="M 9512,8509 L 9512,8359"/>
 <path fill="none" stroke="rgb(179,179,179)" stroke-linejoin="round" d="M 9512,8509 L 9512,8359"/>
 <path fill="none" stroke="rgb(179,179,179)" stroke-linejoin="round" d="M 10771,8509 L 10771,8359"/>
 <path fill="none" stroke="rgb(179,179,179)" stroke-linejoin="round" d="M 10771,8509 L 10771,8359"/>
 <path fill="none" stroke="rgb(179,179,179)" stroke-linejoin="round" d="M 12031,8509 L 12031,8359"/>
 <path fill="none" stroke="rgb(179,179,179)" stroke-linejoin="round" d="M 12031,8509 L 12031,8359"/>
 <path fill="none" stroke="rgb(179,179,179)" stroke-linejoin="round" d="M 1958,8359 L 12031,8359"/>
 <path fill="none" stroke="rgb(179,179,179)" stroke-linejoin="round" d="M 1808,8359 L 1958,8359"/>
 <path fill="none" stroke="rgb(179,179,179)" stroke-linejoin="round" d="M 1808,8359 L 1958,8359"/>
 <path fill="none" stroke="rgb(179,179,179)" stroke-linejoin="round" d="M 1808,7561 L 1958,7561"/>
 <path fill="none" stroke="rgb(179,179,179)" stroke-linejoin="round" d="M 1808,7561 L 1958,7561"/>
 <path fill="none" stroke="rgb(179,179,179)" stroke-linejoin="round" d="M 1808,6763 L 1958,6763"/>
 <path fill="none" stroke="rgb(179,179,179)" stroke-linejoin="round" d="M 1808,6763 L 1958,6763"/>
 <path fill="none" stroke="rgb(179,179,179)" stroke-linejoin="round" d="M 1808,5965 L 1958,5965"/>
 <path fill="none" stroke="rgb(179,179,179)" stroke-linejoin="round" d="M 1808,5965 L 1958,5965"/>
 <path fill="none" stroke="rgb(179,179,179)" stroke-linejoin="round" d="M 1808,5167 L 1958,5167"/>
 <path fill="none" stroke="rgb(179,179,179)" stroke-linejoin="round" d="M 1808,5167 L 1958,5167"/>
 <path fill="none" stroke="rgb(179,179,179)" stroke-linejoin="round" d="M 1808,4370 L 1958,4370"/>
 <path fill="none" stroke="rgb(179,179,179)" stroke-linejoin="round" d="M 1808,4370 L 1958,4370"/>
 <path fill="none" stroke="rgb(179,179,179)" stroke-linejoin="round" d="M 1808,3572 L 1958,3572"/>
 <path fill="none" stroke="rgb(179,179,179)" stroke-linejoin="round" d="M 1808,3572 L 1958,3572"/>
 <path fill="none" stroke="rgb(179,179,179)" stroke-linejoin="round" d="M 1808,2774 L 1958,2774"/>
 <path fill="none" stroke="rgb(179,179,179)" stroke-linejoin="round" d="M 1808,2774 L 1958,2774"/>
 <path fill="none" stroke="rgb(179,179,179)" stroke-linejoin="round" d="M 1808,1976 L 1958,1976"/>
 <path fill="none" stroke="rgb(179,179,179)" stroke-linejoin="round" d="M 1808,1976 L 1958,1976"/>
 <path fill="none" stroke="rgb(179,179,179)" stroke-linejoin="round" d="M 1808,1178 L 1958,1178"/>
 <path fill="none" stroke="rgb(179,179,179)" stroke-linejoin="round" d="M 1808,1178 L 1958,1178"/>
 <path fill="none" stroke="rgb(179,179,179)" stroke-linejoin="round" d="M 1808,380 L 1958,380"/>
 <path fill="none" stroke="rgb(179,179,179)" stroke-linejoin="round" d="M 1808,380 L 1958,380"/>
 <path fill="none" stroke="rgb(179,179,179)" stroke-linejoin="round" d="M 1958,8359 L 1958,380"/>
 <path fill="none" stroke="rgb(179,179,179)" stroke-linejoin="round" d="M 12181,8359 L 12031,8359"/>
 <path fill="none" stroke="rgb(179,179,179)" stroke-linejoin="round" d="M 12181,8359 L 12031,8359"/>
 <path fill="none" stroke="rgb(179,179,179)" stroke-linejoin="round" d="M 12181,6763 L 12031,6763"/>
 <path fill="none" stroke="rgb(179,179,179)" stroke-linejoin="round" d="M 12181,6763 L 12031,6763"/>
 <path fill="none" stroke="rgb(179,179,179)" stroke-linejoin="round" d="M 12181,5167 L 12031,5167"/>
 <path fill="none" stroke="rgb(179,179,179)" stroke-linejoin="round" d="M 12181,5167 L 12031,5167"/>
 <path fill="none" stroke="rgb(179,179,179)" stroke-linejoin="round" d="M 12181,3572 L 12031,3572"/>
 <path fill="none" stroke="rgb(179,179,179)" stroke-linejoin="round" d="M 12181,3572 L 12031,3572"/>
 <path fill="none" stroke="rgb(179,179,179)" stroke-linejoin="round" d="M 12181,1976 L 12031,1976"/>
 <path fill="none" stroke="rgb(179,179,179)" stroke-linejoin="round" d="M 12181,1976 L 12031,1976"/>
 <path fill="none" stroke="rgb(179,179,179)" stroke-linejoin="round" d="M 12181,380 L 12031,380"/>
 <path fill="none" stroke="rgb(179,179,179)" stroke-linejoin="round" d="M 12181,380 L 12031,380"/>
 <path fill="none" stroke="rgb(179,179,179)" stroke-linejoin="round" d="M 12031,8359 L 12031,380"/>
 <path fill="none" stroke="rgb(0,69,134)" stroke-width="80" stroke-linejoin="round" d="M 1958,1047 L 3217,973 4476,969 5735,955 6995,950 8254,937 9512,937 10771,935 12031,935"/>
 <path fill="rgb(0,69,134)" stroke="none" d="M 1833,922 L 1833,1172 2083,1172 2083,922 1833,922 Z"/>
 <path fill="none" stroke="rgb(0,69,134)" stroke-linejoin="round" d="M 1833,922 L 1833,1172 2083,1172 2083,922 1833,922 Z"/>
 <path fill="rgb(0,69,134)" stroke="none" d="M 3092,848 L 3092,1098 3342,1098 3342,848 3092,848 Z"/>
 <path fill="none" stroke="rgb(0,69,134)" stroke-linejoin="round" d="M 3092,848 L 3092,1098 3342,1098 3342,848 3092,848 Z"/>
 <path fill="rgb(0,69,134)" stroke="none" d="M 4351,844 L 4351,1094 4601,1094 4601,844 4351,844 Z"/>
 <path fill="none" stroke="rgb(0,69,134)" stroke-linejoin="round" d="M 4351,844 L 4351,1094 4601,1094 4601,844 4351,844 Z"/>
 <path fill="rgb(0,69,134)" stroke="none" d="M 5610,830 L 5610,1080 5860,1080 5860,830 5610,830 Z"/>
 <path fill="none" stroke="rgb(0,69,134)" stroke-linejoin="round" d="M 5610,830 L 5610,1080 5860,1080 5860,830 5610,830 Z"/>
 <path fill="rgb(0,69,134)" stroke="none" d="M 6870,825 L 6870,1075 7120,1075 7120,825 6870,825 Z"/>
 <path fill="none" stroke="rgb(0,69,134)" stroke-linejoin="round" d="M 6870,825 L 6870,1075 7120,1075 7120,825 6870,825 Z"/>
 <path fill="rgb(0,69,134)" stroke="none" d="M 8129,812 L 8129,1062 8379,1062 8379,812 8129,812 Z"/>
 <path fill="none" stroke="rgb(0,69,134)" stroke-linejoin="round" d="M 8129,812 L 8129,1062 8379,1062 8379,812 8129,812 Z"/>
 <path fill="rgb(0,69,134)" stroke="none" d="M 9387,812 L 9387,1062 9637,1062 9637,812 9387,812 Z"/>
 <path fill="none" stroke="rgb(0,69,134)" stroke-linejoin="round" d="M 9387,812 L 9387,1062 9637,1062 9637,812 9387,812 Z"/>
 <path fill="rgb(0,69,134)" stroke="none" d="M 10646,810 L 10646,1060 10896,1060 10896,810 10646,810 Z"/>
 <path fill="none" stroke="rgb(0,69,134)" stroke-linejoin="round" d="M 10646,810 L 10646,1060 10896,1060 10896,810 10646,810 Z"/>
 <path fill="rgb(0,69,134)" stroke="none" d="M 11906,810 L 11906,1060 12156,1060 12156,810 11906,810 Z"/>
 <path fill="none" stroke="rgb(0,69,134)" stroke-linejoin="round" d="M 11906,810 L 11906,1060 12156,1060 12156,810 11906,810 Z"/>
 <path fill="none" stroke="rgb(255,66,14)" stroke-width="80" stroke-linejoin="round" d="M 1958,2774 L 3217,3061 4476,2902 5735,3030 6995,2742 8254,2168 9512,1912 10771,1434 12031,1242"/>
 <path fill="rgb(255,66,14)" stroke="none" d="M 1833,2774 L 1958,2899 2083,2774 1958,2649 1833,2774 Z"/>
 <path fill="none" stroke="rgb(255,66,14)" stroke-linejoin="round" d="M 1833,2774 L 1958,2899 2083,2774 1958,2649 1833,2774 Z"/>
 <path fill="rgb(255,66,14)" stroke="none" d="M 3092,3061 L 3217,3186 3342,3061 3217,2936 3092,3061 Z"/>
 <path fill="none" stroke="rgb(255,66,14)" stroke-linejoin="round" d="M 3092,3061 L 3217,3186 3342,3061 3217,2936 3092,3061 Z"/>
 <path fill="rgb(255,66,14)" stroke="none" d="M 4351,2902 L 4476,3027 4601,2902 4476,2777 4351,2902 Z"/>
 <path fill="none" stroke="rgb(255,66,14)" stroke-linejoin="round" d="M 4351,2902 L 4476,3027 4601,2902 4476,2777 4351,2902 Z"/>
 <path fill="rgb(255,66,14)" stroke="none" d="M 5610,3030 L 5735,3155 5860,3030 5735,2905 5610,3030 Z"/>
 <path fill="none" stroke="rgb(255,66,14)" stroke-linejoin="round" d="M 5610,3030 L 5735,3155 5860,3030 5735,2905 5610,3030 Z"/>
 <path fill="rgb(255,66,14)" stroke="none" d="M 6870,2742 L 6995,2867 7120,2742 6995,2617 6870,2742 Z"/>
 <path fill="none" stroke="rgb(255,66,14)" stroke-linejoin="round" d="M 6870,2742 L 6995,2867 7120,2742 6995,2617 6870,2742 Z"/>
 <path fill="rgb(255,66,14)" stroke="none" d="M 8129,2168 L 8254,2293 8379,2168 8254,2043 8129,2168 Z"/>
 <path fill="none" stroke="rgb(255,66,14)" stroke-linejoin="round" d="M 8129,2168 L 8254,2293 8379,2168 8254,2043 8129,2168 Z"/>
 <path fill="rgb(255,66,14)" stroke="none" d="M 9387,1912 L 9512,2037 9637,1912 9512,1787 9387,1912 Z"/>
 <path fill="none" stroke="rgb(255,66,14)" stroke-linejoin="round" d="M 9387,1912 L 9512,2037 9637,1912 9512,1787 9387,1912 Z"/>
 <path fill="rgb(255,66,14)" stroke="none" d="M 10646,1434 L 10771,1559 10896,1434 10771,1309 10646,1434 Z"/>
 <path fill="none" stroke="rgb(255,66,14)" stroke-linejoin="round" d="M 10646,1434 L 10771,1559 10896,1434 10771,1309 10646,1434 Z"/>
 <path fill="rgb(255,66,14)" stroke="none" d="M 11906,1242 L 12031,1367 12156,1242 12031,1117 11906,1242 Z"/>
 <path fill="none" stroke="rgb(255,66,14)" stroke-linejoin="round" d="M 11906,1242 L 12031,1367 12156,1242 12031,1117 11906,1242 Z"/>
 <path fill="none" stroke="rgb(255,211,32)" stroke-width="80" stroke-linejoin="round" d="M 1958,1977 L 3217,2019 4476,1983 5735,1976 6995,1972 8254,1976 9512,1979 10771,1979 12031,1975"/>
 <path fill="rgb(255,211,32)" stroke="none" d="M 1833,1852 L 1958,2102 2083,1852 1833,1852 Z"/>
 <path fill="none" stroke="rgb(255,211,32)" stroke-linejoin="round" d="M 1833,1852 L 1958,2102 2083,1852 1833,1852 Z"/>
 <path fill="rgb(255,211,32)" stroke="none" d="M 3092,1894 L 3217,2144 3342,1894 3092,1894 Z"/>
 <path fill="none" stroke="rgb(255,211,32)" stroke-linejoin="round" d="M 3092,1894 L 3217,2144 3342,1894 3092,1894 Z"/>
 <path fill="rgb(255,211,32)" stroke="none" d="M 4351,1858 L 4476,2108 4601,1858 4351,1858 Z"/>
 <path fill="none" stroke="rgb(255,211,32)" stroke-linejoin="round" d="M 4351,1858 L 4476,2108 4601,1858 4351,1858 Z"/>
 <path fill="rgb(255,211,32)" stroke="none" d="M 5610,1851 L 5735,2101 5860,1851 5610,1851 Z"/>
 <path fill="none" stroke="rgb(255,211,32)" stroke-linejoin="round" d="M 5610,1851 L 5735,2101 5860,1851 5610,1851 Z"/>
 <path fill="rgb(255,211,32)" stroke="none" d="M 6870,1847 L 6995,2097 7120,1847 6870,1847 Z"/>
 <path fill="none" stroke="rgb(255,211,32)" stroke-linejoin="round" d="M 6870,1847 L 6995,2097 7120,1847 6870,1847 Z"/>
 <path fill="rgb(255,211,32)" stroke="none" d="M 8129,1851 L 8254,2101 8379,1851 8129,1851 Z"/>
 <path fill="none" stroke="rgb(255,211,32)" stroke-linejoin="round" d="M 8129,1851 L 8254,2101 8379,1851 8129,1851 Z"/>
 <path fill="rgb(255,211,32)" stroke="none" d="M 9387,1854 L 9512,2104 9637,1854 9387,1854 Z"/>
 <path fill="none" stroke="rgb(255,211,32)" stroke-linejoin="round" d="M 9387,1854 L 9512,2104 9637,1854 9387,1854 Z"/>
 <path fill="rgb(255,211,32)" stroke="none" d="M 10646,1854 L 10771,2104 10896,1854 10646,1854 Z"/>
 <path fill="none" stroke="rgb(255,211,32)" stroke-linejoin="round" d="M 10646,1854 L 10771,2104 10896,1854 10646,1854 Z"/>
 <path fill="rgb(255,211,32)" stroke="none" d="M 11906,1850 L 12031,2100 12156,1850 11906,1850 Z"/>
 <path fill="none" stroke="rgb(255,211,32)" stroke-linejoin="round" d="M 11906,1850 L 12031,2100 12156,1850 11906,1850 Z"/>
 <text class="TextShape"><tspan class="TextParagraph" font-family="Liberation Sans" font-size="353px" font-weight="400"><tspan class="TextPosition" x="1773" y="8927"><tspan fill="rgb(0,0,0)" stroke="none">10</tspan></tspan></tspan></text>
 <text class="TextShape"><tspan class="TextParagraph" font-family="Liberation Sans" font-size="353px" font-weight="400"><tspan class="TextPosition" x="3032" y="8927"><tspan fill="rgb(0,0,0)" stroke="none">20</tspan></tspan></tspan></text>
 <text class="TextShape"><tspan class="TextParagraph" font-family="Liberation Sans" font-size="353px" font-weight="400"><tspan class="TextPosition" x="4291" y="8927"><tspan fill="rgb(0,0,0)" stroke="none">30</tspan></tspan></tspan></text>
 <text class="TextShape"><tspan class="TextParagraph" font-family="Liberation Sans" font-size="353px" font-weight="400"><tspan class="TextPosition" x="5550" y="8927"><tspan fill="rgb(0,0,0)" stroke="none">40</tspan></tspan></tspan></text>
 <text class="TextShape"><tspan class="TextParagraph" font-family="Liberation Sans" font-size="353px" font-weight="400"><tspan class="TextPosition" x="6810" y="8927"><tspan fill="rgb(0,0,0)" stroke="none">60</tspan></tspan></tspan></text>
 <text class="TextShape"><tspan class="TextParagraph" font-family="Liberation Sans" font-size="353px" font-weight="400"><tspan class="TextPosition" x="8069" y="8927"><tspan fill="rgb(0,0,0)" stroke="none">80</tspan></tspan></tspan></text>
 <text class="TextShape"><tspan class="TextParagraph" font-family="Liberation Sans" font-size="353px" font-weight="400"><tspan class="TextPosition" x="9235" y="8927"><tspan fill="rgb(0,0,0)" stroke="none">100</tspan></tspan></tspan></text>
 <text class="TextShape"><tspan class="TextParagraph" font-family="Liberation Sans" font-size="353px" font-weight="400"><tspan class="TextPosition" x="10494" y="8927"><tspan fill="rgb(0,0,0)" stroke="none">120</tspan></tspan></tspan></text>
 <text class="TextShape"><tspan class="TextParagraph" font-family="Liberation Sans" font-size="353px" font-weight="400"><tspan class="TextPosition" x="11754" y="8927"><tspan fill="rgb(0,0,0)" stroke="none">140</tspan></tspan></tspan></text>
 <text class="TextShape"><tspan class="TextParagraph" font-family="Liberation Sans" font-size="353px" font-weight="400"><tspan class="TextPosition" x="729" y="8480"><tspan fill="rgb(0,0,0)" stroke="none">0.00%</tspan></tspan></tspan></text>
 <text class="TextShape"><tspan class="TextParagraph" font-family="Liberation Sans" font-size="353px" font-weight="400"><tspan class="TextPosition" x="544" y="7682"><tspan fill="rgb(0,0,0)" stroke="none">10.00%</tspan></tspan></tspan></text>
 <text class="TextShape"><tspan class="TextParagraph" font-family="Liberation Sans" font-size="353px" font-weight="400"><tspan class="TextPosition" x="544" y="6884"><tspan fill="rgb(0,0,0)" stroke="none">20.00%</tspan></tspan></tspan></text>
 <text class="TextShape"><tspan class="TextParagraph" font-family="Liberation Sans" font-size="353px" font-weight="400"><tspan class="TextPosition" x="544" y="6086"><tspan fill="rgb(0,0,0)" stroke="none">30.00%</tspan></tspan></tspan></text>
 <text class="TextShape"><tspan class="TextParagraph" font-family="Liberation Sans" font-size="353px" font-weight="400"><tspan class="TextPosition" x="544" y="5288"><tspan fill="rgb(0,0,0)" stroke="none">40.00%</tspan></tspan></tspan></text>
 <text class="TextShape"><tspan class="TextParagraph" font-family="Liberation Sans" font-size="353px" font-weight="400"><tspan class="TextPosition" x="544" y="4490"><tspan fill="rgb(0,0,0)" stroke="none">50.00%</tspan></tspan></tspan></text>
 <text class="TextShape"><tspan class="TextParagraph" font-family="Liberation Sans" font-size="353px" font-weight="400"><tspan class="TextPosition" x="544" y="3692"><tspan fill="rgb(0,0,0)" stroke="none">60.00%</tspan></tspan></tspan></text>
 <text class="TextShape"><tspan class="TextParagraph" font-family="Liberation Sans" font-size="353px" font-weight="400"><tspan class="TextPosition" x="544" y="2894"><tspan fill="rgb(0,0,0)" stroke="none">70.00%</tspan></tspan></tspan></text>
 <text class="TextShape"><tspan class="TextParagraph" font-family="Liberation Sans" font-size="353px" font-weight="400"><tspan class="TextPosition" x="544" y="2096"><tspan fill="rgb(0,0,0)" stroke="none">80.00%</tspan></tspan></tspan></text>
 <text class="TextShape"><tspan class="TextParagraph" font-family="Liberation Sans" font-size="353px" font-weight="400"><tspan class="TextPosition" x="544" y="1298"><tspan fill="rgb(0,0,0)" stroke="none">90.00%</tspan></tspan></tspan></text>
 <text class="TextShape"><tspan class="TextParagraph" font-family="Liberation Sans" font-size="353px" font-weight="400"><tspan class="TextPosition" x="359" y="500"><tspan fill="rgb(0,0,0)" stroke="none">100.00%</tspan></tspan></tspan></text>
 <text class="TextShape"><tspan class="TextParagraph" font-family="Liberation Sans" font-size="353px" font-weight="400"><tspan class="TextPosition" x="12281" y="8480"><tspan fill="rgb(0,0,0)" stroke="none">0</tspan></tspan></tspan></text>
 <text class="TextShape"><tspan class="TextParagraph" font-family="Liberation Sans" font-size="353px" font-weight="400"><tspan class="TextPosition" x="12281" y="6884"><tspan fill="rgb(0,0,0)" stroke="none">0.5</tspan></tspan></tspan></text>
 <text class="TextShape"><tspan class="TextParagraph" font-family="Liberation Sans" font-size="353px" font-weight="400"><tspan class="TextPosition" x="12281" y="5288"><tspan fill="rgb(0,0,0)" stroke="none">1</tspan></tspan></tspan></text>
 <text class="TextShape"><tspan class="TextParagraph" font-family="Liberation Sans" font-size="353px" font-weight="400"><tspan class="TextPosition" x="12281" y="3692"><tspan fill="rgb(0,0,0)" stroke="none">1.5</tspan></tspan></tspan></text>
 <text class="TextShape"><tspan class="TextParagraph" font-family="Liberation Sans" font-size="353px" font-weight="400"><tspan class="TextPosition" x="12281" y="2096"><tspan fill="rgb(0,0,0)" stroke="none">2</tspan></tspan></tspan></text>
 <text class="TextShape"><tspan class="TextParagraph" font-family="Liberation Sans" font-size="353px" font-weight="400"><tspan class="TextPosition" x="12281" y="500"><tspan fill="rgb(0,0,0)" stroke="none">2.5</tspan></tspan></tspan></text>
 <path fill="none" stroke="rgb(0,69,134)" stroke-width="80" stroke-linejoin="round" d="M 14140,4096 L 14940,4096"/>
 <path fill="rgb(0,69,134)" stroke="none" d="M 14434,3991 L 14434,4202 14645,4202 14645,3991 14434,3991 Z"/>
 <path fill="none" stroke="rgb(0,69,134)" stroke-linejoin="round" d="M 14434,3991 L 14434,4202 14645,4202 14645,3991 14434,3991 Z"/>
 <path fill="none" stroke="rgb(255,66,14)" stroke-width="80" stroke-linejoin="round" d="M 14140,4594 L 14940,4594"/>
 <path fill="rgb(255,66,14)" stroke="none" d="M 14434,4594 L 14540,4699 14645,4594 14540,4489 14434,4594 Z"/>
 <path fill="none" stroke="rgb(255,66,14)" stroke-linejoin="round" d="M 14434,4594 L 14540,4699 14645,4594 14540,4489 14434,4594 Z"/>
 <path fill="none" stroke="rgb(255,211,32)" stroke-width="80" stroke-linejoin="round" d="M 14140,5091 L 14940,5091"/>
 <path fill="rgb(255,211,32)" stroke="none" d="M 14434,4986 L 14540,5197 14645,4986 14434,4986 Z"/>
 <path fill="none" stroke="rgb(255,211,32)" stroke-linejoin="round" d="M 14434,4986 L 14540,5197 14645,4986 14434,4986 Z"/>
 <text class="TextShape"><tspan class="TextParagraph" font-family="Liberation Sans" font-size="353px" font-weight="400"><tspan class="TextPosition" x="15040" y="4216"><tspan fill="rgb(0,0,0)" stroke="none">Zhoda</tspan></tspan></tspan></text>
 <text class="TextShape"><tspan class="TextParagraph" font-family="Liberation Sans" font-size="353px" font-weight="400"><tspan class="TextPosition" x="15040" y="4713"><tspan fill="rgb(0,0,0)" stroke="none">Čas</tspan></tspan></tspan></text>
 <text class="TextShape"><tspan class="TextParagraph" font-family="Liberation Sans" font-size="353px" font-weight="400"><tspan class="TextPosition" x="15040" y="5211"><tspan fill="rgb(0,0,0)" stroke="none">Podiel veľkosti</tspan></tspan></tspan></text>
 <text class="TextShape" transform="translate(13498,5084) rotate(-90) translate(-13498,-5084)"><tspan class="TextParagraph" font-family="Liberation Sans" font-size="318px" font-weight="400"><tspan class="TextPosition" x="13498" y="5084"><tspan fill="rgb(0,0,0)" stroke="none">Čas [s]</tspan></tspan></tspan></text>
</svg>