<?xml version="1.0" encoding="UTF-8"?>
<!DOCTYPE svg PUBLIC "-//W3C//DTD SVG 1.1//EN" "http://www.w3.org/Graphics/SVG/1.1/DTD/svg11.dtd">
<svg width="176mm" height="92mm" viewBox="0 0 17600 9200" version="1.1" xmlns="http://www.w3.org/2000/svg" stroke-width="28.222" stroke-linejoin="round" xml:space="preserve">
 <path fill="rgb(255,255,255)" stroke="none" d="M 8825,9190 L 6,9190 6,0 17643,0 17643,9190 8825,9190 Z"/>
 <path fill="none" stroke="rgb(179,179,179)" stroke-linejoin="round" d="M 6624,8360 L 1773,8360 1773,382 11474,382 11474,8360 6624,8360 Z"/>
 <path fill="none" stroke="rgb(179,179,179)" stroke-linejoin="round" d="M 11474,8359 L 1773,8359"/>
 <path fill="none" stroke="rgb(179,179,179)" stroke-linejoin="round" d="M 11474,7561 L 1773,7561"/>
 <path fill="none" stroke="rgb(179,179,179)" stroke-linejoin="round" d="M 11474,6763 L 1773,6763"/>
 <path fill="none" stroke="rgb(179,179,179)" stroke-linejoin="round" d="M 11474,5965 L 1773,5965"/>
 <path fill="none" stroke="rgb(179,179,179)" stroke-linejoin="round" d="M 11474,5167 L 1773,5167"/>
 <path fill="none" stroke="rgb(179,179,179)" stroke-linejoin="round" d="M 11474,4370 L 1773,4370"/>
 <path fill="none" stroke="rgb(179,179,179)" stroke-linejoin="round" d="M 11474,3572 L 1773,3572"/>
 <path fill="none" stroke="rgb(179,179,179)" stroke-linejoin="round" d="M 11474,2774 L 1773,2774"/>
 <path fill="none" stroke="rgb(179,179,179)" stroke-linejoin="round" d="M 11474,1976 L 1773,1976"/>
 <path fill="none" stroke="rgb(179,179,179)" stroke-linejoin="round" d="M 11474,1178 L 1773,1178"/>
 <path fill="none" stroke="rgb(179,179,179)" stroke-linejoin="round" d="M 11474,380 L 1773,380"/>
 <path fill="none" stroke="rgb(179,179,179)" stroke-linejoin="round" d="M 1773,8509 L 1773,8359"/>
 <path fill="none" stroke="rgb(179,179,179)" stroke-linejoin="round" d="M 1773,8509 L 1773,8359"/>
 <path fill="none" stroke="rgb(179,179,179)" stroke-linejoin="round" d="M 3159,8509 L 3159,8359"/>
 <path fill="none" stroke="rgb(179,179,179)" stroke-linejoin="round" d="M 3159,8509 L 3159,8359"/>
 <path fill="none" stroke="rgb(179,179,179)" stroke-linejoin="round" d="M 4545,8509 L 4545,8359"/>
 <path fill="none" stroke="rgb(179,179,179)" stroke-linejoin="round" d="M 4545,8509 L 4545,8359"/>
 <path fill="none" stroke="rgb(179,179,179)" stroke-linejoin="round" d="M 5931,8509 L 5931,8359"/>
 <path fill="none" stroke="rgb(179,179,179)" stroke-linejoin="round" d="M 5931,8509 L 5931,8359"/>
 <path fill="none" stroke="rgb(179,179,179)" stroke-linejoin="round" d="M 7317,8509 L 7317,8359"/>
 <path fill="none" stroke="rgb(179,179,179)" stroke-linejoin="round" d="M 7317,8509 L 7317,8359"/>
 <path fill="none" stroke="rgb(179,179,179)" stroke-linejoin="round" d="M 8703,8509 L 8703,8359"/>
 <path fill="none" stroke="rgb(179,179,179)" stroke-linejoin="round" d="M 8703,8509 L 8703,8359"/>
 <path fill="none" stroke="rgb(179,179,179)" stroke-linejoin="round" d="M 10088,8509 L 10088,8359"/>
 <path fill="none" stroke="rgb(179,179,179)" stroke-linejoin="round" d="M 10088,8509 L 10088,8359"/>
 <path fill="none" stroke="rgb(179,179,179)" stroke-linejoin="round" d="M 11474,8509 L 11474,8359"/>
 <path fill="none" stroke="rgb(179,179,179)" stroke-linejoin="round" d="M 11474,8509 L 11474,8359"/>
 <path fill="none" stroke="rgb(179,179,179)" stroke-linejoin="round" d="M 1773,8359 L 11474,8359"/>
 <path fill="none" stroke="rgb(179,179,179)" stroke-linejoin="round" d="M 1623,8359 L 1773,8359"/>
 <path fill="none" stroke="rgb(179,179,179)" stroke-linejoin="round" d="M 1623,8359 L 1773,8359"/>
 <path fill="none" stroke="rgb(179,179,179)" stroke-linejoin="round" d="M 1623,7561 L 1773,7561"/>
 <path fill="none" stroke="rgb(179,179,179)" stroke-linejoin="round" d="M 1623,7561 L 1773,7561"/>
 <path fill="none" stroke="rgb(179,179,179)" stroke-linejoin="round" d="M 1623,6763 L 1773,6763"/>
 <path fill="none" stroke="rgb(179,179,179)" stroke-linejoin="round" d="M 1623,6763 L 1773,6763"/>
 <path fill="none" stroke="rgb(179,179,179)" stroke-linejoin="round" d="M 1623,5965 L 1773,5965"/>
 <path fill="none" stroke="rgb(179,179,179)" stroke-linejoin="round" d="M 1623,5965 L 1773,5965"/>
 <path fill="none" stroke="rgb(179,179,179)" stroke-linejoin="round" d="M 1623,5167 L 1773,5167"/>
 <path fill="none" stroke="rgb(179,179,179)" stroke-linejoin="round" d="M 1623,5167 L 1773,5167"/>
 <path fill="none" stroke="rgb(179,179,179)" stroke-linejoin="round" d="M 1623,4370 L 1773,4370"/>
 <path fill="none" stroke="rgb(179,179,179)" stroke-linejoin="round" d="M 1623,4370 L 1773,4370"/>
 <path fill="none" stroke="rgb(179,179,179)" stroke-linejoin="round" d="M 1623,3572 L 1773,3572"/>
 <path fill="none" stroke="rgb(179,179,179)" stroke-linejoin="round" d="M 1623,3572 L 1773,3572"/>
 <path fill="none" stroke="rgb(179,179,179)" stroke-linejoin="round" d="M 1623,2774 L 1773,2774"/>
 <path fill="none" stroke="rgb(179,179,179)" stroke-linejoin="round" d="M 1623,2774 L 1773,2774"/>
 <path fill="none" stroke="rgb(179,179,179)" stroke-linejoin="round" d="M 1623,1976 L 1773,1976"/>
 <path fill="none" stroke="rgb(179,179,179)" stroke-linejoin="round" d="M 1623,1976 L 1773,1976"/>
 <path fill="none" stroke="rgb(179,179,179)" stroke-linejoin="round" d="M 1623,1178 L 1773,1178"/>
 <path fill="none" stroke="rgb(179,179,179)" stroke-linejoin="round" d="M 1623,1178 L 1773,1178"/>
 <path fill="none" stroke="rgb(179,179,179)" stroke-linejoin="round" d="M 1623,380 L 1773,380"/>
 <path fill="none" stroke="rgb(179,179,179)" stroke-linejoin="round" d="M 1623,380 L 1773,380"/>
 <path fill="none" stroke="rgb(179,179,179)" stroke-linejoin="round" d="M 1773,8359 L 1773,380"/>
 <path fill="none" stroke="rgb(179,179,179)" stroke-linejoin="round" d="M 11624,8359 L 11474,8359"/>
 <path fill="none" stroke="rgb(179,179,179)" stroke-linejoin="round" d="M 11624,8359 L 11474,8359"/>
 <path fill="none" stroke="rgb(179,179,179)" stroke-linejoin="round" d="M 11624,7561 L 11474,7561"/>
 <path fill="none" stroke="rgb(179,179,179)" stroke-linejoin="round" d="M 11624,7561 L 11474,7561"/>
 <path fill="none" stroke="rgb(179,179,179)" stroke-linejoin="round" d="M 11624,6763 L 11474,6763"/>
 <path fill="none" stroke="rgb(179,179,179)" stroke-linejoin="round" d="M 11624,6763 L 11474,6763"/>
 <path fill="none" stroke="rgb(179,179,179)" stroke-linejoin="round" d="M 11624,5965 L 11474,5965"/>
 <path fill="none" stroke="rgb(179,179,179)" stroke-linejoin="round" d="M 11624,5965 L 11474,5965"/>
 <path fill="none" stroke="rgb(179,179,179)" stroke-linejoin="round" d="M 11624,5167 L 11474,5167"/>
 <path fill="none" stroke="rgb(179,179,179)" stroke-linejoin="round" d="M 11624,5167 L 11474,5167"/>
 <path fill="none" stroke="rgb(179,179,179)" stroke-linejoin="round" d="M 11624,4370 L 11474,4370"/>
 <path fill="none" stroke="rgb(179,179,179)" stroke-linejoin="round" d="M 11624,4370 L 11474,4370"/>
 <path fill="none" stroke="rgb(179,179,179)" stroke-linejoin="round" d="M 11624,3572 L 11474,3572"/>
 <path fill="none" stroke="rgb(179,179,179)" stroke-linejoin="round" d="M 11624,3572 L 11474,3572"/>
 <path fill="none" stroke="rgb(179,179,179)" stroke-linejoin="round" d="M 11624,2774 L 11474,2774"/>
 <path fill="none" stroke="rgb(179,179,179)" stroke-linejoin="round" d="M 11624,2774 L 11474,2774"/>
 <path fill="none" stroke="rgb(179,179,179)" stroke-linejoin="round" d="M 11624,1976 L 11474,1976"/>
 <path fill="none" stroke="rgb(179,179,179)" stroke-linejoin="round" d="M 11624,1976 L 11474,1976"/>
 <path fill="none" stroke="rgb(179,179,179)" stroke-linejoin="round" d="M 11624,1178 L 11474,1178"/>
 <path fill="none" stroke="rgb(179,179,179)" stroke-linejoin="round" d="M 11624,1178 L 11474,1178"/>
 <path fill="none" stroke="rgb(179,179,179)" stroke-linejoin="round" d="M 11624,380 L 11474,380"/>
 <path fill="none" stroke="rgb(179,179,179)" stroke-linejoin="round" d="M 11624,380 L 11474,380"/>
 <path fill="none" stroke="rgb(179,179,179)" stroke-linejoin="round" d="M 11474,8359 L 11474,380"/>
 <path fill="none" stroke="rgb(0,69,134)" stroke-width="80" stroke-linejoin="round" d="M 1773,551 L 3159,567 4545,609 5931,730 7317,863 8703,896 10088,938 11474,889"/>
 <path fill="rgb(0,69,134)" stroke="none" d="M 1648,426 L 1648,676 1898,676 1898,426 1648,426 Z"/>
 <path fill="none" stroke="rgb(0,69,134)" stroke-linejoin="round" d="M 1648,426 L 1648,676 1898,676 1898,426 1648,426 Z"/>
 <path fill="rgb(0,69,134)" stroke="none" d="M 3034,442 L 3034,692 3284,692 3284,442 3034,442 Z"/>
 <path fill="none" stroke="rgb(0,69,134)" stroke-linejoin="round" d="M 3034,442 L 3034,692 3284,692 3284,442 3034,442 Z"/>
 <path fill="rgb(0,69,134)" stroke="none" d="M 4420,484 L 4420,734 4670,734 4670,484 4420,484 Z"/>
 <path fill="none" stroke="rgb(0,69,134)" stroke-linejoin="round" d="M 4420,484 L 4420,734 4670,734 4670,484 4420,484 Z"/>
 <path fill="rgb(0,69,134)" stroke="none" d="M 5806,605 L 5806,855 6056,855 6056,605 5806,605 Z"/>
 <path fill="none" stroke="rgb(0,69,134)" stroke-linejoin="round" d="M 5806,605 L 5806,855 6056,855 6056,605 5806,605 Z"/>
 <path fill="rgb(0,69,134)" stroke="none" d="M 7192,738 L 7192,988 7442,988 7442,738 7192,738 Z"/>
 <path fill="none" stroke="rgb(0,69,134)" stroke-linejoin="round" d="M 7192,738 L 7192,988 7442,988 7442,738 7192,738 Z"/>
 <path fill="rgb(0,69,134)" stroke="none" d="M 8578,771 L 8578,1021 8827,1021 8827,771 8578,771 Z"/>
 <path fill="none" stroke="rgb(0,69,134)" stroke-linejoin="round" d="M 8578,771 L 8578,1021 8827,1021 8827,771 8578,771 Z"/>
 <path fill="rgb(0,69,134)" stroke="none" d="M 9963,813 L 9963,1063 10213,1063 10213,813 9963,813 Z"/>
 <path fill="none" stroke="rgb(0,69,134)" stroke-linejoin="round" d="M 9963,813 L 9963,1063 10213,1063 10213,813 9963,813 Z"/>
 <path fill="rgb(0,69,134)" stroke="none" d="M 11349,764 L 11349,1014 11599,1014 11599,764 11349,764 Z"/>
 <path fill="none" stroke="rgb(0,69,134)" stroke-linejoin="round" d="M 11349,764 L 11349,1014 11599,1014 11599,764 11349,764 Z"/>
 <path fill="none" stroke="rgb(255,66,14)" stroke-width="80" stroke-linejoin="round" d="M 1773,7999 L 3159,7920 4545,7760 5931,7281 7317,6563 8703,5446 10088,3492 11474,1178"/>
 <path fill="rgb(255,66,14)" stroke="none" d="M 1648,7999 L 1773,8124 1898,7999 1773,7874 1648,7999 Z"/>
 <path fill="none" stroke="rgb(255,66,14)" stroke-linejoin="round" d="M 1648,7999 L 1773,8124 1898,7999 1773,7874 1648,7999 Z"/>
 <path fill="rgb(255,66,14)" stroke="none" d="M 3034,7920 L 3159,8045 3284,7920 3159,7795 3034,7920 Z"/>
 <path fill="none" stroke="rgb(255,66,14)" stroke-linejoin="round" d="M 3034,7920 L 3159,8045 3284,7920 3159,7795 3034,7920 Z"/>
 <path fill="rgb(255,66,14)" stroke="none" d="M 4420,7760 L 4545,7885 4670,7760 4545,7635 4420,7760 Z"/>
 <path fill="none" stroke="rgb(255,66,14)" stroke-linejoin="round" d="M 4420,7760 L 4545,7885 4670,7760 4545,7635 4420,7760 Z"/>
 <path fill="rgb(255,66,14)" stroke="none" d="M 5806,7281 L 5931,7406 6056,7281 5931,7156 5806,7281 Z"/>
 <path fill="none" stroke="rgb(255,66,14)" stroke-linejoin="round" d="M 5806,7281 L 5931,7406 6056,7281 5931,7156 5806,7281 Z"/>
 <path fill="rgb(255,66,14)" stroke="none" d="M 7192,6563 L 7317,6688 7442,6563 7317,6438 7192,6563 Z"/>
 <path fill="none" stroke="rgb(255,66,14)" stroke-linejoin="round" d="M 7192,6563 L 7317,6688 7442,6563 7317,6438 7192,6563 Z"/>
 <path fill="rgb(255,66,14)" stroke="none" d="M 8578,5446 L 8703,5571 8827,5446 8703,5321 8578,5446 Z"/>
 <path fill="none" stroke="rgb(255,66,14)" stroke-linejoin="round" d="M 8578,5446 L 8703,5571 8827,5446 8703,5321 8578,5446 Z"/>
 <path fill="rgb(255,66,14)" stroke="none" d="M 9963,3492 L 10088,3617 10213,3492 10088,3367 9963,3492 Z"/>
 <path fill="none" stroke="rgb(255,66,14)" stroke-linejoin="round" d="M 9963,3492 L 10088,3617 10213,3492 10088,3367 9963,3492 Z"/>
 <path fill="rgb(255,66,14)" stroke="none" d="M 11349,1178 L 11474,1303 11599,1178 11474,1053 11349,1178 Z"/>
 <path fill="none" stroke="rgb(255,66,14)" stroke-linejoin="round" d="M 11349,1178 L 11474,1303 11599,1178 11474,1053 11349,1178 Z"/>
 <path fill="none" stroke="rgb(255,211,32)" stroke-width="80" stroke-linejoin="round" d="M 1773,4632 L 3159,4092 4545,3812 5931,3166 7317,2639 8703,2217 10088,2023 11474,1972"/>
 <path fill="rgb(255,211,32)" stroke="none" d="M 1648,4508 L 1773,4757 1898,4508 1648,4508 Z"/>
 <path fill="none" stroke="rgb(255,211,32)" stroke-linejoin="round" d="M 1648,4508 L 1773,4757 1898,4508 1648,4508 Z"/>
 <path fill="rgb(255,211,32)" stroke="none" d="M 3034,3967 L 3159,4217 3284,3967 3034,3967 Z"/>
 <path fill="none" stroke="rgb(255,211,32)" stroke-linejoin="round" d="M 3034,3967 L 3159,4217 3284,3967 3034,3967 Z"/>
 <path fill="rgb(255,211,32)" stroke="none" d="M 4420,3687 L 4545,3937 4670,3687 4420,3687 Z"/>
 <path fill="none" stroke="rgb(255,211,32)" stroke-linejoin="round" d="M 4420,3687 L 4545,3937 4670,3687 4420,3687 Z"/>
 <path fill="rgb(255,211,32)" stroke="none" d="M 5806,3041 L 5931,3291 6056,3041 5806,3041 Z"/>
 <path fill="none" stroke="rgb(255,211,32)" stroke-linejoin="round" d="M 5806,3041 L 5931,3291 6056,3041 5806,3041 Z"/>
 <path fill="rgb(255,211,32)" stroke="none" d="M 7192,2514 L 7317,2764 7442,2514 7192,2514 Z"/>
 <path fill="none" stroke="rgb(255,211,32)" stroke-linejoin="round" d="M 7192,2514 L 7317,2764 7442,2514 7192,2514 Z"/>
 <path fill="rgb(255,211,32)" stroke="none" d="M 8578,2092 L 8703,2342 8827,2092 8578,2092 Z"/>
 <path fill="none" stroke="rgb(255,211,32)" stroke-linejoin="round" d="M 8578,2092 L 8703,2342 8827,2092 8578,2092 Z"/>
 <path fill="rgb(255,211,32)" stroke="none" d="M 9963,1898 L 10088,2148 10213,1898 9963,1898 Z"/>
 <path fill="none" stroke="rgb(255,211,32)" stroke-linejoin="round" d="M 9963,1898 L 10088,2148 10213,1898 9963,1898 Z"/>
 <path fill="rgb(255,211,32)" stroke="none" d="M 11349,1847 L 11474,2097 11599,1847 11349,1847 Z"/>
 <path fill="none" stroke="rgb(255,211,32)" stroke-linejoin="round" d="M 11349,1847 L 11474,2097 11599,1847 11349,1847 Z"/>
 <text class="TextShape"><tspan class="TextParagraph" font-family="Liberation Sans" font-size="353px" font-weight="400"><tspan class="TextPosition" x="1680" y="8927"><tspan fill="rgb(0,0,0)" stroke="none">1</tspan></tspan></tspan></text>
 <text class="TextShape"><tspan class="TextParagraph" font-family="Liberation Sans" font-size="353px" font-weight="400"><tspan class="TextPosition" x="3066" y="8927"><tspan fill="rgb(0,0,0)" stroke="none">2</tspan></tspan></tspan></text>
 <text class="TextShape"><tspan class="TextParagraph" font-family="Liberation Sans" font-size="353px" font-weight="400"><tspan class="TextPosition" x="4452" y="8927"><tspan fill="rgb(0,0,0)" stroke="none">3</tspan></tspan></tspan></text>
 <text class="TextShape"><tspan class="TextParagraph" font-family="Liberation Sans" font-size="353px" font-weight="400"><tspan class="TextPosition" x="5838" y="8927"><tspan fill="rgb(0,0,0)" stroke="none">5</tspan></tspan></tspan></text>
 <text class="TextShape"><tspan class="TextParagraph" font-family="Liberation Sans" font-size="353px" font-weight="400"><tspan class="TextPosition" x="7224" y="8927"><tspan fill="rgb(0,0,0)" stroke="none">7</tspan></tspan></tspan></text>
 <text class="TextShape"><tspan class="TextParagraph" font-family="Liberation Sans" font-size="353px" font-weight="400"><tspan class="TextPosition" x="8518" y="8927"><tspan fill="rgb(0,0,0)" stroke="none">10</tspan></tspan></tspan></text>
 <text class="TextShape"><tspan class="TextParagraph" font-family="Liberation Sans" font-size="353px" font-weight="400"><tspan class="TextPosition" x="9904" y="8927"><tspan fill="rgb(0,0,0)" stroke="none">15</tspan></tspan></tspan></text>
 <text class="TextShape"><tspan class="TextParagraph" font-family="Liberation Sans" font-size="353px" font-weight="400"><tspan class="TextPosition" x="10377" y="8927"><tspan fill="rgb(0,0,0)" stroke="none">Neobmedzené</tspan></tspan></tspan></text>
 <text class="TextShape"><tspan class="TextParagraph" font-family="Liberation Sans" font-size="353px" font-weight="400"><tspan class="TextPosition" x="544" y="8480"><tspan fill="rgb(0,0,0)" stroke="none">0.00%</tspan></tspan></tspan></text>
 <text class="TextShape"><tspan class="TextParagraph" font-family="Liberation Sans" font-size="353px" font-weight="400"><tspan class="TextPosition" x="359" y="7682"><tspan fill="rgb(0,0,0)" stroke="none">10.00%</tspan></tspan></tspan></text>
 <text class="TextShape"><tspan class="TextParagraph" font-family="Liberation Sans" font-size="353px" font-weight="400"><tspan class="TextPosition" x="359" y="6884"><tspan fill="rgb(0,0,0)" stroke="none">20.00%</tspan></tspan></tspan></text>
 <text class="TextShape"><tspan class="TextParagraph" font-family="Liberation Sans" font-size="353px" font-weight="400"><tspan class="TextPosition" x="359" y="6086"><tspan fill="rgb(0,0,0)" stroke="none">30.00%</tspan></tspan></tspan></text>
 <text class="TextShape"><tspan class="TextParagraph" font-family="Liberation Sans" font-size="353px" font-weight="400"><tspan class="TextPosition" x="359" y="5288"><tspan fill="rgb(0,0,0)" stroke="none">40.00%</tspan></tspan></tspan></text>
 <text class="TextShape"><tspan class="TextParagraph" font-family="Liberation Sans" font-size="353px" font-weight="400"><tspan class="TextPosition" x="359" y="4490"><tspan fill="rgb(0,0,0)" stroke="none">50.00%</tspan></tspan></tspan></text>
 <text class="TextShape"><tspan class="TextParagraph" font-family="Liberation Sans" font-size="353px" font-weight="400"><tspan class="TextPosition" x="359" y="3692"><tspan fill="rgb(0,0,0)" stroke="none">60.00%</tspan></tspan></tspan></text>
 <text class="TextShape"><tspan class="TextParagraph" font-family="Liberation Sans" font-size="353px" font-weight="400"><tspan class="TextPosition" x="359" y="2894"><tspan fill="rgb(0,0,0)" stroke="none">70.00%</tspan></tspan></tspan></text>
 <text class="TextShape"><tspan class="TextParagraph" font-family="Liberation Sans" font-size="353px" font-weight="400"><tspan class="TextPosition" x="359" y="2096"><tspan fill="rgb(0,0,0)" stroke="none">80.00%</tspan></tspan></tspan></text>
 <text class="TextShape"><tspan class="TextParagraph" font-family="Liberation Sans" font-size="353px" font-weight="400"><tspan class="TextPosition" x="359" y="1298"><tspan fill="rgb(0,0,0)" stroke="none">90.00%</tspan></tspan></tspan></text>
 <text class="TextShape"><tspan class="TextParagraph" font-family="Liberation Sans" font-size="353px" font-weight="400"><tspan class="TextPosition" x="174" y="500"><tspan fill="rgb(0,0,0)" stroke="none">100.00%</tspan></tspan></tspan></text>
 <text class="TextShape"><tspan class="TextParagraph" font-family="Liberation Sans" font-size="353px" font-weight="400"><tspan class="TextPosition" x="11724" y="8480"><tspan fill="rgb(0,0,0)" stroke="none">0</tspan></tspan></tspan></text>
 <text class="TextShape"><tspan class="TextParagraph" font-family="Liberation Sans" font-size="353px" font-weight="400"><tspan class="TextPosition" x="11724" y="7682"><tspan fill="rgb(0,0,0)" stroke="none">0.2</tspan></tspan></tspan></text>
 <text class="TextShape"><tspan class="TextParagraph" font-family="Liberation Sans" font-size="353px" font-weight="400"><tspan class="TextPosition" x="11724" y="6884"><tspan fill="rgb(0,0,0)" stroke="none">0.4</tspan></tspan></tspan></text>
 <text class="TextShape"><tspan class="TextParagraph" font-family="Liberation Sans" font-size="353px" font-weight="400"><tspan class="TextPosition" x="11724" y="6086"><tspan fill="rgb(0,0,0)" stroke="none">0.6</tspan></tspan></tspan></text>
 <text class="TextShape"><tspan class="TextParagraph" font-family="Liberation Sans" font-size="353px" font-weight="400"><tspan class="TextPosition" x="11724" y="5288"><tspan fill="rgb(0,0,0)" stroke="none">0.8</tspan></tspan></tspan></text>
 <text class="TextShape"><tspan class="TextParagraph" font-family="Liberation Sans" font-size="353px" font-weight="400"><tspan class="TextPosition" x="11724" y="4490"><tspan fill="rgb(0,0,0)" stroke="none">1</tspan></tspan></tspan></text>
 <text class="TextShape"><tspan class="TextParagraph" font-family="Liberation Sans" font-size="353px" font-weight="400"><tspan class="TextPosition" x="11724" y="3692"><tspan fill="rgb(0,0,0)" stroke="none">1.2</tspan></tspan></tspan></text>
 <text class="TextShape"><tspan class="TextParagraph" font-family="Liberation Sans" font-size="353px" font-weight="400"><tspan class="TextPosition" x="11724" y="2894"><tspan fill="rgb(0,0,0)" stroke="none">1.4</tspan></tspan></tspan></text>
 <text class="TextShape"><tspan class="TextParagraph" font-family="Liberation Sans" font-size="353px" font-weight="400"><tspan class="TextPosition" x="11724" y="2096"><tspan fill="rgb(0,0,0)" stroke="none">1.6</tspan></tspan></tspan></text>
 <text class="TextShape"><tspan class="TextParagraph" font-family="Liberation Sans" font-size="353px" font-weight="400"><tspan class="TextPosition" x="11724" y="1298"><tspan fill="rgb(0,0,0)" stroke="none">1.8</tspan></tspan></tspan></text>
 <text class="TextShape"><tspan class="TextParagraph" font-family="Liberation Sans" font-size="353px" font-weight="400"><tspan class="TextPosition" x="11724" y="500"><tspan fill="rgb(0,0,0)" stroke="none">2</tspan></tspan></tspan></text>
 <path fill="none" stroke="rgb(0,69,134)" stroke-width="80" stroke-linejoin="round" d="M 14140,4096 L 14940,4096"/>
 <path fill="rgb(0,69,134)" stroke="none" d="M 14434,3991 L 14434,4202 14645,4202 14645,3991 14434,3991 Z"/>
 <path fill="none" stroke="rgb(0,69,134)" stroke-linejoin="round" d="M 14434,3991 L 14434,4202 14645,4202 14645,3991 14434,3991 Z"/>
 <path fill="none" stroke="rgb(255,66,14)" stroke-width="80" stroke-linejoin="round" d="M 14140,4594 L 14940,4594"/>
 <path fill="rgb(255,66,14)" stroke="none" d="M 14434,4594 L 14540,4699 14645,4594 14540,4489 14434,4594 Z"/>
 <path fill="none" stroke="rgb(255,66,14)" stroke-linejoin="round" d="M 14434,4594 L 14540,4699 14645,4594 14540,4489 14434,4594 Z"/>
 <path fill="none" stroke="rgb(255,211,32)" stroke-width="80" stroke-linejoin="round" d="M 14140,5091 L 14940,5091"/>
 <path fill="rgb(255,211,32)" stroke="none" d="M 14434,4986 L 14540,5197 14645,4986 14434,4986 Z"/>
 <path fill="none" stroke="rgb(255,211,32)" stroke-linejoin="round" d="M 14434,4986 L 14540,5197 14645,4986 14434,4986 Z"/>
 <text class="TextShape"><tspan class="TextParagraph" font-family="Liberation Sans" font-size="353px" font-weight="400"><tspan class="TextPosition" x="15040" y="4216"><tspan fill="rgb(0,0,0)" stroke="none">Zhoda</tspan></tspan></tspan></text>
 <text class="TextShape"><tspan class="TextParagraph" font-family="Liberation Sans" font-size="353px" font-weight="400"><tspan class="TextPosition" x="15040" y="4713"><tspan fill="rgb(0,0,0)" stroke="none">Čas</tspan></tspan></tspan></text>
 <text class="TextShape"><tspan class="TextParagraph" font-family="Liberation Sans" font-size="353px" font-weight="400"><tspan class="TextPosition" x="15040" y="5211"><tspan fill="rgb(0,0,0)" stroke="none">Podiel veľkosti</tspan></tspan></tspan></text>
 <text class="TextShape" transform="translate(13498,5084) rotate(-90) translate(-13498,-5084)"><tspan class="TextParagraph" font-family="Liberation Sans" font-size="318px" font-weight="400"><tspan class="TextPosition" x="13498" y="5084"><tspan fill="rgb(0,0,0)" stroke="none">Čas [s]</tspan></tspan></tspan></text>
</svg>