<?xml version="1.0" encoding="UTF-8"?>
<!DOCTYPE svg PUBLIC "-//W3C//DTD SVG 1.1//EN" "http://www.w3.org/Graphics/SVG/1.1/DTD/svg11.dtd">
<svg width="176mm" height="92mm" viewBox="0 0 17600 9200" version="1.1" xmlns="http://www.w3.org/2000/svg" stroke-width="28.222" stroke-linejoin="round" xml:space="preserve">
 <path fill="rgb(255,255,255)" stroke="none" d="M 8825,9190 L 6,9190 6,0 17643,0 17643,9190 8825,9190 Z"/>
 <path fill="none" stroke="rgb(179,179,179)" stroke-linejoin="round" d="M 6624,8360 L 1773,8360 1773,382 11474,382 11474,8360 6624,8360 Z"/>
 <path fill="none" stroke="rgb(179,179,179)" stroke-linejoin="round" d="M 11474,8359 L 1773,8359"/>
 <path fill="none" stroke="rgb(179,179,179)" stroke-linejoin="round" d="M 11474,7561 L 1773,7561"/>
 <path fill="none" stroke="rgb(179,179,179)" stroke-linejoin="round" d="M 11474,6763 L 1773,6763"/>
 <path fill="none" stroke="rgb(179,179,179)" stroke-linejoin="round" d="M 11474,5965 L 1773,5965"/>
 <path fill="none" stroke="rgb(179,179,179)" stroke-linejoin="round" d="M 11474,5167 L 1773,5167"/>
 <path fill="none" stroke="rgb(179,179,179)" stroke-linejoin="round" d="M 11474,4370 L 1773,4370"/>
 <path fill="none" stroke="rgb(179,179,179)" stroke-linejoin="round" d="M 11474,3572 L 1773,3572"/>
 <path fill="none" stroke="rgb(179,179,179)" stroke-linejoin="round" d="M 11474,2774 L 1773,2774"/>
 <path fill="none" stroke="rgb(179,179,179)" stroke-linejoin="round" d="M 11474,1976 L 1773,1976"/>
 <path fill="none" stroke="rgb(179,179,179)" stroke-linejoin="round" d="M 11474,1178 L 1773,1178"/>
 <path fill="none" stroke="rgb(179,179,179)" stroke-linejoin="round" d="M 11474,380 L 1773,380"/>
 <path fill="none" stroke="rgb(179,179,179)" stroke-linejoin="round" d="M 1773,8509 L 1773,8359"/>
 <path fill="none" stroke="rgb(179,179,179)" stroke-linejoin="round" d="M 1773,8509 L 1773,8359"/>
 <path fill="none" stroke="rgb(179,179,179)" stroke-linejoin="round" d="M 3159,8509 L 3159,8359"/>
 <path fill="none" stroke="rgb(179,179,179)" stroke-linejoin="round" d="M 3159,8509 L 3159,8359"/>
 <path fill="none" stroke="rgb(179,179,179)" stroke-linejoin="round" d="M 4545,8509 L 4545,8359"/>
 <path fill="none" stroke="rgb(179,179,179)" stroke-linejoin="round" d="M 4545,8509 L 4545,8359"/>
 <path fill="none" stroke="rgb(179,179,179)" stroke-linejoin="round" d="M 5931,8509 L 5931,8359"/>
 <path fill="none" stroke="rgb(179,179,179)" stroke-linejoin="round" d="M 5931,8509 L 5931,8359"/>
 <path fill="none" stroke="rgb(179,179,179)" stroke-linejoin="round" d="M 7317,8509 L 7317,8359"/>
 <path fill="none" stroke="rgb(179,179,179)" stroke-linejoin="round" d="M 7317,8509 L 7317,8359"/>
 <path fill="none" stroke="rgb(179,179,179)" stroke-linejoin="round" d="M 8703,8509 L 8703,8359"/>
 <path fill="none" stroke="rgb(179,179,179)" stroke-linejoin="round" d="M 8703,8509 L 8703,8359"/>
 <path fill="none" stroke="rgb(179,179,179)" stroke-linejoin="round" d="M 10088,8509 L 10088,8359"/>
 <path fill="none" stroke="rgb(179,179,179)" stroke-linejoin="round" d="M 10088,8509 L 10088,8359"/>
 <path fill="none" stroke="rgb(179,179,179)" stroke-linejoin="round" d="M 11474,8509 L 11474,8359"/>
 <path fill="none" stroke="rgb(179,179,179)" stroke-linejoin="round" d="M 11474,8509 L 11474,8359"/>
 <path fill="none" stroke="rgb(179,179,179)" stroke-linejoin="round" d="M 1773,8359 L 11474,8359"/>
 <path fill="none" stroke="rgb(179,179,179)" stroke-linejoin="round" d="M 1623,8359 L 1773,8359"/>
 <path fill="none" stroke="rgb(179,179,179)" stroke-linejoin="round" d="M 1623,8359 L 1773,8359"/>
 <path fill="none" stroke="rgb(179,179,179)" stroke-linejoin="round" d="M 1623,7561 L 1773,7561"/>
 <path fill="none" stroke="rgb(179,179,179)" stroke-linejoin="round" d="M 1623,7561 L 1773,7561"/>
 <path fill="none" stroke="rgb(179,179,179)" stroke-linejoin="round" d="M 1623,6763 L 1773,6763"/>
 <path fill="none" stroke="rgb(179,179,179)" stroke-linejoin="round" d="M 1623,6763 L 1773,6763"/>
 <path fill="none" stroke="rgb(179,179,179)" stroke-linejoin="round" d="M 1623,5965 L 1773,5965"/>
 <path fill="none" stroke="rgb(179,179,179)" stroke-linejoin="round" d="M 1623,5965 L 1773,5965"/>
 <path fill="none" stroke="rgb(179,179,179)" stroke-linejoin="round" d="M 1623,5167 L 1773,5167"/>
 <path fill="none" stroke="rgb(179,179,179)" stroke-linejoin="round" d="M 1623,5167 L 1773,5167"/>
 <path fill="none" stroke="rgb(179,179,179)" stroke-linejoin="round" d="M 1623,4370 L 1773,4370"/>
 <path fill="none" stroke="rgb(179,179,179)" stroke-linejoin="round" d="M 1623,4370 L 1773,4370"/>
 <path fill="none" stroke="rgb(179,179,179)" stroke-linejoin="round" d="M 1623,3572 L 1773,3572"/>
 <path fill="none" stroke="rgb(179,179,179)" stroke-linejoin="round" d="M 1623,3572 L 1773,3572"/>
 <path fill="none" stroke="rgb(179,179,179)" stroke-linejoin="round" d="M 1623,2774 L 1773,2774"/>
 <path fill="none" stroke="rgb(179,179,179)" stroke-linejoin="round" d="M 1623,2774 L 1773,2774"/>
 <path fill="none" stroke="rgb(179,179,179)" stroke-linejoin="round" d="M 1623,1976 L 1773,1976"/>
 <path fill="none" stroke="rgb(179,179,179)" stroke-linejoin="round" d="M 1623,1976 L 1773,1976"/>
 <path fill="none" stroke="rgb(179,179,179)" stroke-linejoin="round" d="M 1623,1178 L 1773,1178"/>
 <path fill="none" stroke="rgb(179,179,179)" stroke-linejoin="round" d="M 1623,1178 L 1773,1178"/>
 <path fill="none" stroke="rgb(179,179,179)" stroke-linejoin="round" d="M 1623,380 L 1773,380"/>
 <path fill="none" stroke="rgb(179,179,179)" stroke-linejoin="round" d="M 1623,380 L 1773,380"/>
 <path fill="none" stroke="rgb(179,179,179)" stroke-linejoin="round" d="M 1773,8359 L 1773,380"/>
 <path fill="none" stroke="rgb(179,179,179)" stroke-linejoin="round" d="M 11624,8359 L 11474,8359"/>
 <path fill="none" stroke="rgb(179,179,179)" stroke-linejoin="round" d="M 11624,8359 L 11474,8359"/>
 <path fill="none" stroke="rgb(179,179,179)" stroke-linejoin="round" d="M 11624,7472 L 11474,7472"/>
 <path fill="none" stroke="rgb(179,179,179)" stroke-linejoin="round" d="M 11624,7472 L 11474,7472"/>
 <path fill="none" stroke="rgb(179,179,179)" stroke-linejoin="round" d="M 11624,6585 L 11474,6585"/>
 <path fill="none" stroke="rgb(179,179,179)" stroke-linejoin="round" d="M 11624,6585 L 11474,6585"/>
 <path fill="none" stroke="rgb(179,179,179)" stroke-linejoin="round" d="M 11624,5699 L 11474,5699"/>
 <path fill="none" stroke="rgb(179,179,179)" stroke-linejoin="round" d="M 11624,5699 L 11474,5699"/>
 <path fill="none" stroke="rgb(179,179,179)" stroke-linejoin="round" d="M 11624,4812 L 11474,4812"/>
 <path fill="none" stroke="rgb(179,179,179)" stroke-linejoin="round" d="M 11624,4812 L 11474,4812"/>
 <path fill="none" stroke="rgb(179,179,179)" stroke-linejoin="round" d="M 11624,3927 L 11474,3927"/>
 <path fill="none" stroke="rgb(179,179,179)" stroke-linejoin="round" d="M 11624,3927 L 11474,3927"/>
 <path fill="none" stroke="rgb(179,179,179)" stroke-linejoin="round" d="M 11624,3040 L 11474,3040"/>
 <path fill="none" stroke="rgb(179,179,179)" stroke-linejoin="round" d="M 11624,3040 L 11474,3040"/>
 <path fill="none" stroke="rgb(179,179,179)" stroke-linejoin="round" d="M 11624,2154 L 11474,2154"/>
 <path fill="none" stroke="rgb(179,179,179)" stroke-linejoin="round" d="M 11624,2154 L 11474,2154"/>
 <path fill="none" stroke="rgb(179,179,179)" stroke-linejoin="round" d="M 11624,1267 L 11474,1267"/>
 <path fill="none" stroke="rgb(179,179,179)" stroke-linejoin="round" d="M 11624,1267 L 11474,1267"/>
 <path fill="none" stroke="rgb(179,179,179)" stroke-linejoin="round" d="M 11624,381 L 11474,381"/>
 <path fill="none" stroke="rgb(179,179,179)" stroke-linejoin="round" d="M 11624,381 L 11474,381"/>
 <path fill="none" stroke="rgb(179,179,179)" stroke-linejoin="round" d="M 11474,8359 L 11474,381"/>
 <path fill="none" stroke="rgb(0,69,134)" stroke-width="80" stroke-linejoin="round" d="M 1773,554 L 3159,555 4545,589 5931,687 7317,830 8703,904 10088,985 11474,937"/>
 <path fill="rgb(0,69,134)" stroke="none" d="M 1648,429 L 1648,679 1898,679 1898,429 1648,429 Z"/>
 <path fill="none" stroke="rgb(0,69,134)" stroke-linejoin="round" d="M 1648,429 L 1648,679 1898,679 1898,429 1648,429 Z"/>
 <path fill="rgb(0,69,134)" stroke="none" d="M 3034,430 L 3034,680 3284,680 3284,430 3034,430 Z"/>
 <path fill="none" stroke="rgb(0,69,134)" stroke-linejoin="round" d="M 3034,430 L 3034,680 3284,680 3284,430 3034,430 Z"/>
 <path fill="rgb(0,69,134)" stroke="none" d="M 4420,464 L 4420,714 4670,714 4670,464 4420,464 Z"/>
 <path fill="none" stroke="rgb(0,69,134)" stroke-linejoin="round" d="M 4420,464 L 4420,714 4670,714 4670,464 4420,464 Z"/>
 <path fill="rgb(0,69,134)" stroke="none" d="M 5806,562 L 5806,812 6056,812 6056,562 5806,562 Z"/>
 <path fill="none" stroke="rgb(0,69,134)" stroke-linejoin="round" d="M 5806,562 L 5806,812 6056,812 6056,562 5806,562 Z"/>
 <path fill="rgb(0,69,134)" stroke="none" d="M 7192,705 L 7192,955 7442,955 7442,705 7192,705 Z"/>
 <path fill="none" stroke="rgb(0,69,134)" stroke-linejoin="round" d="M 7192,705 L 7192,955 7442,955 7442,705 7192,705 Z"/>
 <path fill="rgb(0,69,134)" stroke="none" d="M 8578,779 L 8578,1029 8827,1029 8827,779 8578,779 Z"/>
 <path fill="none" stroke="rgb(0,69,134)" stroke-linejoin="round" d="M 8578,779 L 8578,1029 8827,1029 8827,779 8578,779 Z"/>
 <path fill="rgb(0,69,134)" stroke="none" d="M 9963,860 L 9963,1110 10213,1110 10213,860 9963,860 Z"/>
 <path fill="none" stroke="rgb(0,69,134)" stroke-linejoin="round" d="M 9963,860 L 9963,1110 10213,1110 10213,860 9963,860 Z"/>
 <path fill="rgb(0,69,134)" stroke="none" d="M 11349,812 L 11349,1062 11599,1062 11599,812 11349,812 Z"/>
 <path fill="none" stroke="rgb(0,69,134)" stroke-linejoin="round" d="M 11349,812 L 11349,1062 11599,1062 11599,812 11349,812 Z"/>
 <path fill="none" stroke="rgb(255,66,14)" stroke-width="80" stroke-linejoin="round" d="M 1773,8199 L 3159,8163 4545,8075 5931,7791 7317,7206 8703,6355 10088,4936 11474,859"/>
 <path fill="rgb(255,66,14)" stroke="none" d="M 1648,8199 L 1773,8324 1898,8199 1773,8074 1648,8199 Z"/>
 <path fill="none" stroke="rgb(255,66,14)" stroke-linejoin="round" d="M 1648,8199 L 1773,8324 1898,8199 1773,8074 1648,8199 Z"/>
 <path fill="rgb(255,66,14)" stroke="none" d="M 3034,8163 L 3159,8288 3284,8163 3159,8038 3034,8163 Z"/>
 <path fill="none" stroke="rgb(255,66,14)" stroke-linejoin="round" d="M 3034,8163 L 3159,8288 3284,8163 3159,8038 3034,8163 Z"/>
 <path fill="rgb(255,66,14)" stroke="none" d="M 4420,8075 L 4545,8200 4670,8075 4545,7950 4420,8075 Z"/>
 <path fill="none" stroke="rgb(255,66,14)" stroke-linejoin="round" d="M 4420,8075 L 4545,8200 4670,8075 4545,7950 4420,8075 Z"/>
 <path fill="rgb(255,66,14)" stroke="none" d="M 5806,7791 L 5931,7916 6056,7791 5931,7666 5806,7791 Z"/>
 <path fill="none" stroke="rgb(255,66,14)" stroke-linejoin="round" d="M 5806,7791 L 5931,7916 6056,7791 5931,7666 5806,7791 Z"/>
 <path fill="rgb(255,66,14)" stroke="none" d="M 7192,7206 L 7317,7331 7442,7206 7317,7081 7192,7206 Z"/>
 <path fill="none" stroke="rgb(255,66,14)" stroke-linejoin="round" d="M 7192,7206 L 7317,7331 7442,7206 7317,7081 7192,7206 Z"/>
 <path fill="rgb(255,66,14)" stroke="none" d="M 8578,6355 L 8703,6480 8827,6355 8703,6230 8578,6355 Z"/>
 <path fill="none" stroke="rgb(255,66,14)" stroke-linejoin="round" d="M 8578,6355 L 8703,6480 8827,6355 8703,6230 8578,6355 Z"/>
 <path fill="rgb(255,66,14)" stroke="none" d="M 9963,4936 L 10088,5061 10213,4936 10088,4811 9963,4936 Z"/>
 <path fill="none" stroke="rgb(255,66,14)" stroke-linejoin="round" d="M 9963,4936 L 10088,5061 10213,4936 10088,4811 9963,4936 Z"/>
 <path fill="rgb(255,66,14)" stroke="none" d="M 11349,859 L 11474,984 11599,859 11474,734 11349,859 Z"/>
 <path fill="none" stroke="rgb(255,66,14)" stroke-linejoin="round" d="M 11349,859 L 11474,984 11599,859 11474,734 11349,859 Z"/>
 <path fill="none" stroke="rgb(255,211,32)" stroke-width="80" stroke-linejoin="round" d="M 1773,4738 L 3159,4309 4545,4032 5931,3300 7317,2694 8703,2187 10088,1959 11474,1906"/>
 <path fill="rgb(255,211,32)" stroke="none" d="M 1648,4613 L 1773,4863 1898,4613 1648,4613 Z"/>
 <path fill="none" stroke="rgb(255,211,32)" stroke-linejoin="round" d="M 1648,4613 L 1773,4863 1898,4613 1648,4613 Z"/>
 <path fill="rgb(255,211,32)" stroke="none" d="M 3034,4184 L 3159,4434 3284,4184 3034,4184 Z"/>
 <path fill="none" stroke="rgb(255,211,32)" stroke-linejoin="round" d="M 3034,4184 L 3159,4434 3284,4184 3034,4184 Z"/>
 <path fill="rgb(255,211,32)" stroke="none" d="M 4420,3907 L 4545,4157 4670,3907 4420,3907 Z"/>
 <path fill="none" stroke="rgb(255,211,32)" stroke-linejoin="round" d="M 4420,3907 L 4545,4157 4670,3907 4420,3907 Z"/>
 <path fill="rgb(255,211,32)" stroke="none" d="M 5806,3175 L 5931,3425 6056,3175 5806,3175 Z"/>
 <path fill="none" stroke="rgb(255,211,32)" stroke-linejoin="round" d="M 5806,3175 L 5931,3425 6056,3175 5806,3175 Z"/>
 <path fill="rgb(255,211,32)" stroke="none" d="M 7192,2569 L 7317,2819 7442,2569 7192,2569 Z"/>
 <path fill="none" stroke="rgb(255,211,32)" stroke-linejoin="round" d="M 7192,2569 L 7317,2819 7442,2569 7192,2569 Z"/>
 <path fill="rgb(255,211,32)" stroke="none" d="M 8578,2062 L 8703,2312 8827,2062 8578,2062 Z"/>
 <path fill="none" stroke="rgb(255,211,32)" stroke-linejoin="round" d="M 8578,2062 L 8703,2312 8827,2062 8578,2062 Z"/>
 <path fill="rgb(255,211,32)" stroke="none" d="M 9963,1834 L 10088,2084 10213,1834 9963,1834 Z"/>
 <path fill="none" stroke="rgb(255,211,32)" stroke-linejoin="round" d="M 9963,1834 L 10088,2084 10213,1834 9963,1834 Z"/>
 <path fill="rgb(255,211,32)" stroke="none" d="M 11349,1781 L 11474,2031 11599,1781 11349,1781 Z"/>
 <path fill="none" stroke="rgb(255,211,32)" stroke-linejoin="round" d="M 11349,1781 L 11474,2031 11599,1781 11349,1781 Z"/>
 <text class="TextShape"><tspan class="TextParagraph" font-family="Liberation Sans" font-size="353px" font-weight="400"><tspan class="TextPosition" x="1680" y="8927"><tspan fill="rgb(0,0,0)" stroke="none">1</tspan></tspan></tspan></text>
 <text class="TextShape"><tspan class="TextParagraph" font-family="Liberation Sans" font-size="353px" font-weight="400"><tspan class="TextPosition" x="3066" y="8927"><tspan fill="rgb(0,0,0)" stroke="none">2</tspan></tspan></tspan></text>
 <text class="TextShape"><tspan class="TextParagraph" font-family="Liberation Sans" font-size="353px" font-weight="400"><tspan class="TextPosition" x="4452" y="8927"><tspan fill="rgb(0,0,0)" stroke="none">3</tspan></tspan></tspan></text>
 <text class="TextShape"><tspan class="TextParagraph" font-family="Liberation Sans" font-size="353px" font-weight="400"><tspan class="TextPosition" x="5838" y="8927"><tspan fill="rgb(0,0,0)" stroke="none">5</tspan></tspan></tspan></text>
 <text class="TextShape"><tspan class="TextParagraph" font-family="Liberation Sans" font-size="353px" font-weight="400"><tspan class="TextPosition" x="7224" y="8927"><tspan fill="rgb(0,0,0)" stroke="none">7</tspan></tspan></tspan></text>
 <text class="TextShape"><tspan class="TextParagraph" font-family="Liberation Sans" font-size="353px" font-weight="400"><tspan class="TextPosition" x="8518" y="8927"><tspan fill="rgb(0,0,0)" stroke="none">10</tspan></tspan></tspan></text>
 <text class="TextShape"><tspan class="TextParagraph" font-family="Liberation Sans" font-size="353px" font-weight="400"><tspan class="TextPosition" x="9904" y="8927"><tspan fill="rgb(0,0,0)" stroke="none">15</tspan></tspan></tspan></text>
 <text class="TextShape"><tspan class="TextParagraph" font-family="Liberation Sans" font-size="353px" font-weight="400"><tspan class="TextPosition" x="10377" y="8927"><tspan fill="rgb(0,0,0)" stroke="none">Neobmedzené</tspan></tspan></tspan></text>
 <text class="TextShape"><tspan class="TextParagraph" font-family="Liberation Sans" font-size="353px" font-weight="400"><tspan class="TextPosition" x="544" y="8480"><tspan fill="rgb(0,0,0)" stroke="none">0.00%</tspan></tspan></tspan></text>
 <text class="TextShape"><tspan class="TextParagraph" font-family="Liberation Sans" font-size="353px" font-weight="400"><tspan class="TextPosition" x="359" y="7682"><tspan fill="rgb(0,0,0)" stroke="none">10.00%</tspan></tspan></tspan></text>
 <text class="TextShape"><tspan class="TextParagraph" font-family="Liberation Sans" font-size="353px" font-weight="400"><tspan class="TextPosition" x="359" y="6884"><tspan fill="rgb(0,0,0)" stroke="none">20.00%</tspan></tspan></tspan></text>
 <text class="TextShape"><tspan class="TextParagraph" font-family="Liberation Sans" font-size="353px" font-weight="400"><tspan class="TextPosition" x="359" y="6086"><tspan fill="rgb(0,0,0)" stroke="none">30.00%</tspan></tspan></tspan></text>
 <text class="TextShape"><tspan class="TextParagraph" font-family="Liberation Sans" font-size="353px" font-weight="400"><tspan class="TextPosition" x="359" y="5288"><tspan fill="rgb(0,0,0)" stroke="none">40.00%</tspan></tspan></tspan></text>
 <text class="TextShape"><tspan class="TextParagraph" font-family="Liberation Sans" font-size="353px" font-weight="400"><tspan class="TextPosition" x="359" y="4490"><tspan fill="rgb(0,0,0)" stroke="none">50.00%</tspan></tspan></tspan></text>
 <text class="TextShape"><tspan class="TextParagraph" font-family="Liberation Sans" font-size="353px" font-weight="400"><tspan class="TextPosition" x="359" y="3692"><tspan fill="rgb(0,0,0)" stroke="none">60.00%</tspan></tspan></tspan></text>
 <text class="TextShape"><tspan class="TextParagraph" font-family="Liberation Sans" font-size="353px" font-weight="400"><tspan class="TextPosition" x="359" y="2894"><tspan fill="rgb(0,0,0)" stroke="none">70.00%</tspan></tspan></tspan></text>
 <text class="TextShape"><tspan class="TextParagraph" font-family="Liberation Sans" font-size="353px" font-weight="400"><tspan class="TextPosition" x="359" y="2096"><tspan fill="rgb(0,0,0)" stroke="none">80.00%</tspan></tspan></tspan></text>
 <text class="TextShape"><tspan class="TextParagraph" font-family="Liberation Sans" font-size="353px" font-weight="400"><tspan class="TextPosition" x="359" y="1298"><tspan fill="rgb(0,0,0)" stroke="none">90.00%</tspan></tspan></tspan></text>
 <text class="TextShape"><tspan class="TextParagraph" font-family="Liberation Sans" font-size="353px" font-weight="400"><tspan class="TextPosition" x="174" y="500"><tspan fill="rgb(0,0,0)" stroke="none">100.00%</tspan></tspan></tspan></text>
 <text class="TextShape"><tspan class="TextParagraph" font-family="Liberation Sans" font-size="353px" font-weight="400"><tspan class="TextPosition" x="11724" y="8480"><tspan fill="rgb(0,0,0)" stroke="none">0</tspan></tspan></tspan></text>
 <text class="TextShape"><tspan class="TextParagraph" font-family="Liberation Sans" font-size="353px" font-weight="400"><tspan class="TextPosition" x="11724" y="7593"><tspan fill="rgb(0,0,0)" stroke="none">0.5</tspan></tspan></tspan></text>
 <text class="TextShape"><tspan class="TextParagraph" font-family="Liberation Sans" font-size="353px" font-weight="400"><tspan class="TextPosition" x="11724" y="6706"><tspan fill="rgb(0,0,0)" stroke="none">1</tspan></tspan></tspan></text>
 <text class="TextShape"><tspan class="TextParagraph" font-family="Liberation Sans" font-size="353px" font-weight="400"><tspan class="TextPosition" x="11724" y="5820"><tspan fill="rgb(0,0,0)" stroke="none">1.5</tspan></tspan></tspan></text>
 <text class="TextShape"><tspan class="TextParagraph" font-family="Liberation Sans" font-size="353px" font-weight="400"><tspan class="TextPosition" x="11724" y="4933"><tspan fill="rgb(0,0,0)" stroke="none">2</tspan></tspan></tspan></text>
 <text class="TextShape"><tspan class="TextParagraph" font-family="Liberation Sans" font-size="353px" font-weight="400"><tspan class="TextPosition" x="11724" y="4047"><tspan fill="rgb(0,0,0)" stroke="none">2.5</tspan></tspan></tspan></text>
 <text class="TextShape"><tspan class="TextParagraph" font-family="Liberation Sans" font-size="353px" font-weight="400"><tspan class="TextPosition" x="11724" y="3160"><tspan fill="rgb(0,0,0)" stroke="none">3</tspan></tspan></tspan></text>
 <text class="TextShape"><tspan class="TextParagraph" font-family="Liberation Sans" font-size="353px" font-weight="400"><tspan class="TextPosition" x="11724" y="2274"><tspan fill="rgb(0,0,0)" stroke="none">3.5</tspan></tspan></tspan></text>
 <text class="TextShape"><tspan class="TextParagraph" font-family="Liberation Sans" font-size="353px" font-weight="400"><tspan class="TextPosition" x="11724" y="1387"><tspan fill="rgb(0,0,0)" stroke="none">4</tspan></tspan></tspan></text>
 <text class="TextShape"><tspan class="TextParagraph" font-family="Liberation Sans" font-size="353px" font-weight="400"><tspan class="TextPosition" x="11724" y="501"><tspan fill="rgb(0,0,0)" stroke="none">4.5</tspan></tspan></tspan></text>
 <path fill="none" stroke="rgb(0,69,134)" stroke-width="80" stroke-linejoin="round" d="M 14140,4096 L 14940,4096"/>
 <path fill="rgb(0,69,134)" stroke="none" d="M 14434,3991 L 14434,4202 14645,4202 14645,3991 14434,3991 Z"/>
 <path fill="none" stroke="rgb(0,69,134)" stroke-linejoin="round" d="M 14434,3991 L 14434,4202 14645,4202 14645,3991 14434,3991 Z"/>
 <path fill="none" stroke="rgb(255,66,14)" stroke-width="80" stroke-linejoin="round" d="M 14140,4594 L 14940,4594"/>
 <path fill="rgb(255,66,14)" stroke="none" d="M 14434,4594 L 14540,4699 14645,4594 14540,4489 14434,4594 Z"/>
 <path fill="none" stroke="rgb(255,66,14)" stroke-linejoin="round" d="M 14434,4594 L 14540,4699 14645,4594 14540,4489 14434,4594 Z"/>
 <path fill="none" stroke="rgb(255,211,32)" stroke-width="80" stroke-linejoin="round" d="M 14140,5091 L 14940,5091"/>
 <path fill="rgb(255,211,32)" stroke="none" d="M 14434,4986 L 14540,5197 14645,4986 14434,4986 Z"/>
 <path fill="none" stroke="rgb(255,211,32)" stroke-linejoin="round" d="M 14434,4986 L 14540,5197 14645,4986 14434,4986 Z"/>
 <text class="TextShape"><tspan class="TextParagraph" font-family="Liberation Sans" font-size="353px" font-weight="400"><tspan class="TextPosition" x="15040" y="4216"><tspan fill="rgb(0,0,0)" stroke="none">Zhoda</tspan></tspan></tspan></text>
 <text class="TextShape"><tspan class="TextParagraph" font-family="Liberation Sans" font-size="353px" font-weight="400"><tspan class="TextPosition" x="15040" y="4713"><tspan fill="rgb(0,0,0)" stroke="none">Čas</tspan></tspan></tspan></text>
 <text class="TextShape"><tspan class="TextParagraph" font-family="Liberation Sans" font-size="353px" font-weight="400"><tspan class="TextPosition" x="15040" y="5211"><tspan fill="rgb(0,0,0)" stroke="none">Podiel veľkosti</tspan></tspan></tspan></text>
 <text class="TextShape" transform="translate(13498,5084) rotate(-90) translate(-13498,-5084)"><tspan class="TextParagraph" font-family="Liberation Sans" font-size="318px" font-weight="400"><tspan class="TextPosition" x="13498" y="5084"><tspan fill="rgb(0,0,0)" stroke="none">Čas [s]</tspan></tspan></tspan></text>
</svg>