<?xml version="1.0" encoding="UTF-8"?>
<!DOCTYPE svg PUBLIC "-//W3C//DTD SVG 1.1//EN" "http://www.w3.org/Graphics/SVG/1.1/DTD/svg11.dtd">
<svg width="176mm" height="92mm" viewBox="0 0 17600 9200" version="1.1" xmlns="http://www.w3.org/2000/svg" stroke-width="28.222" stroke-linejoin="round" xml:space="preserve">
 <path fill="rgb(255,255,255)" stroke="none" d="M 8825,9190 L 6,9190 6,0 17643,0 17643,9190 8825,9190 Z"/>
 <path fill="none" stroke="rgb(179,179,179)" stroke-linejoin="round" d="M 6995,8360 L 1958,8360 1958,382 12031,382 12031,8360 6995,8360 Z"/>
 <path fill="none" stroke="rgb(179,179,179)" stroke-linejoin="round" d="M 12031,8359 L 1958,8359"/>
 <path fill="none" stroke="rgb(179,179,179)" stroke-linejoin="round" d="M 12031,7561 L 1958,7561"/>
 <path fill="none" stroke="rgb(179,179,179)" stroke-linejoin="round" d="M 12031,6763 L 1958,6763"/>
 <path fill="none" stroke="rgb(179,179,179)" stroke-linejoin="round" d="M 12031,5965 L 1958,5965"/>
 <path fill="none" stroke="rgb(179,179,179)" stroke-linejoin="round" d="M 12031,5167 L 1958,5167"/>
 <path fill="none" stroke="rgb(179,179,179)" stroke-linejoin="round" d="M 12031,4370 L 1958,4370"/>
 <path fill="none" stroke="rgb(179,179,179)" stroke-linejoin="round" d="M 12031,3572 L 1958,3572"/>
 <path fill="none" stroke="rgb(179,179,179)" stroke-linejoin="round" d="M 12031,2774 L 1958,2774"/>
 <path fill="none" stroke="rgb(179,179,179)" stroke-linejoin="round" d="M 12031,1976 L 1958,1976"/>
 <path fill="none" stroke="rgb(179,179,179)" stroke-linejoin="round" d="M 12031,1178 L 1958,1178"/>
 <path fill="none" stroke="rgb(179,179,179)" stroke-linejoin="round" d="M 12031,380 L 1958,380"/>
 <path fill="none" stroke="rgb(179,179,179)" stroke-linejoin="round" d="M 1958,8509 L 1958,8359"/>
 <path fill="none" stroke="rgb(179,179,179)" stroke-linejoin="round" d="M 1958,8509 L 1958,8359"/>
 <path fill="none" stroke="rgb(179,179,179)" stroke-linejoin="round" d="M 3077,8509 L 3077,8359"/>
 <path fill="none" stroke="rgb(179,179,179)" stroke-linejoin="round" d="M 3077,8509 L 3077,8359"/>
 <path fill="none" stroke="rgb(179,179,179)" stroke-linejoin="round" d="M 4196,8509 L 4196,8359"/>
 <path fill="none" stroke="rgb(179,179,179)" stroke-linejoin="round" d="M 4196,8509 L 4196,8359"/>
 <path fill="none" stroke="rgb(179,179,179)" stroke-linejoin="round" d="M 5316,8509 L 5316,8359"/>
 <path fill="none" stroke="rgb(179,179,179)" stroke-linejoin="round" d="M 5316,8509 L 5316,8359"/>
 <path fill="none" stroke="rgb(179,179,179)" stroke-linejoin="round" d="M 6435,8509 L 6435,8359"/>
 <path fill="none" stroke="rgb(179,179,179)" stroke-linejoin="round" d="M 6435,8509 L 6435,8359"/>
 <path fill="none" stroke="rgb(179,179,179)" stroke-linejoin="round" d="M 7554,8509 L 7554,8359"/>
 <path fill="none" stroke="rgb(179,179,179)" stroke-linejoin="round" d="M 7554,8509 L 7554,8359"/>
 <path fill="none" stroke="rgb(179,179,179)" stroke-linejoin="round" d="M 8674,8509 L 8674,8359"/>
 <path fill="none" stroke="rgb(179,179,179)" stroke-linejoin="round" d="M 8674,8509 L 8674,8359"/>
 <path fill="none" stroke="rgb(179,179,179)" stroke-linejoin="round" d="M 9792,8509 L 9792,8359"/>
 <path fill="none" stroke="rgb(179,179,179)" stroke-linejoin="round" d="M 9792,8509 L 9792,8359"/>
 <path fill="none" stroke="rgb(179,179,179)" stroke-linejoin="round" d="M 10911,8509 L 10911,8359"/>
 <path fill="none" stroke="rgb(179,179,179)" stroke-linejoin="round" d="M 10911,8509 L 10911,8359"/>
 <path fill="none" stroke="rgb(179,179,179)" stroke-linejoin="round" d="M 12031,8509 L 12031,8359"/>
 <path fill="none" stroke="rgb(179,179,179)" stroke-linejoin="round" d="M 12031,8509 L 12031,8359"/>
 <path fill="none" stroke="rgb(179,179,179)" stroke-linejoin="round" d="M 1958,8359 L 12031,8359"/>
 <path fill="none" stroke="rgb(179,179,179)" stroke-linejoin="round" d="M 1808,8359 L 1958,8359"/>
 <path fill="none" stroke="rgb(179,179,179)" stroke-linejoin="round" d="M 1808,8359 L 1958,8359"/>
 <path fill="none" stroke="rgb(179,179,179)" stroke-linejoin="round" d="M 1808,7561 L 1958,7561"/>
 <path fill="none" stroke="rgb(179,179,179)" stroke-linejoin="round" d="M 1808,7561 L 1958,7561"/>
 <path fill="none" stroke="rgb(179,179,179)" stroke-linejoin="round" d="M 1808,6763 L 1958,6763"/>
 <path fill="none" stroke="rgb(179,179,179)" stroke-linejoin="round" d="M 1808,6763 L 1958,6763"/>
 <path fill="none" stroke="rgb(179,179,179)" stroke-linejoin="round" d="M 1808,5965 L 1958,5965"/>
 <path fill="none" stroke="rgb(179,179,179)" stroke-linejoin="round" d="M 1808,5965 L 1958,5965"/>
 <path fill="none" stroke="rgb(179,179,179)" stroke-linejoin="round" d="M 1808,5167 L 1958,5167"/>
 <path fill="none" stroke="rgb(179,179,179)" stroke-linejoin="round" d="M 1808,5167 L 1958,5167"/>
 <path fill="none" stroke="rgb(179,179,179)" stroke-linejoin="round" d="M 1808,4370 L 1958,4370"/>
 <path fill="none" stroke="rgb(179,179,179)" stroke-linejoin="round" d="M 1808,4370 L 1958,4370"/>
 <path fill="none" stroke="rgb(179,179,179)" stroke-linejoin="round" d="M 1808,3572 L 1958,3572"/>
 <path fill="none" stroke="rgb(179,179,179)" stroke-linejoin="round" d="M 1808,3572 L 1958,3572"/>
 <path fill="none" stroke="rgb(179,179,179)" stroke-linejoin="round" d="M 1808,2774 L 1958,2774"/>
 <path fill="none" stroke="rgb(179,179,179)" stroke-linejoin="round" d="M 1808,2774 L 1958,2774"/>
 <path fill="none" stroke="rgb(179,179,179)" stroke-linejoin="round" d="M 1808,1976 L 1958,1976"/>
 <path fill="none" stroke="rgb(179,179,179)" stroke-linejoin="round" d="M 1808,1976 L 1958,1976"/>
 <path fill="none" stroke="rgb(179,179,179)" stroke-linejoin="round" d="M 1808,1178 L 1958,1178"/>
 <path fill="none" stroke="rgb(179,179,179)" stroke-linejoin="round" d="M 1808,1178 L 1958,1178"/>
 <path fill="none" stroke="rgb(179,179,179)" stroke-linejoin="round" d="M 1808,380 L 1958,380"/>
 <path fill="none" stroke="rgb(179,179,179)" stroke-linejoin="round" d="M 1808,380 L 1958,380"/>
 <path fill="none" stroke="rgb(179,179,179)" stroke-linejoin="round" d="M 1958,8359 L 1958,380"/>
 <path fill="none" stroke="rgb(179,179,179)" stroke-linejoin="round" d="M 12181,8359 L 12031,8359"/>
 <path fill="none" stroke="rgb(179,179,179)" stroke-linejoin="round" d="M 12181,8359 L 12031,8359"/>
 <path fill="none" stroke="rgb(179,179,179)" stroke-linejoin="round" d="M 12181,7472 L 12031,7472"/>
 <path fill="none" stroke="rgb(179,179,179)" stroke-linejoin="round" d="M 12181,7472 L 12031,7472"/>
 <path fill="none" stroke="rgb(179,179,179)" stroke-linejoin="round" d="M 12181,6585 L 12031,6585"/>
 <path fill="none" stroke="rgb(179,179,179)" stroke-linejoin="round" d="M 12181,6585 L 12031,6585"/>
 <path fill="none" stroke="rgb(179,179,179)" stroke-linejoin="round" d="M 12181,5699 L 12031,5699"/>
 <path fill="none" stroke="rgb(179,179,179)" stroke-linejoin="round" d="M 12181,5699 L 12031,5699"/>
 <path fill="none" stroke="rgb(179,179,179)" stroke-linejoin="round" d="M 12181,4812 L 12031,4812"/>
 <path fill="none" stroke="rgb(179,179,179)" stroke-linejoin="round" d="M 12181,4812 L 12031,4812"/>
 <path fill="none" stroke="rgb(179,179,179)" stroke-linejoin="round" d="M 12181,3927 L 12031,3927"/>
 <path fill="none" stroke="rgb(179,179,179)" stroke-linejoin="round" d="M 12181,3927 L 12031,3927"/>
 <path fill="none" stroke="rgb(179,179,179)" stroke-linejoin="round" d="M 12181,3040 L 12031,3040"/>
 <path fill="none" stroke="rgb(179,179,179)" stroke-linejoin="round" d="M 12181,3040 L 12031,3040"/>
 <path fill="none" stroke="rgb(179,179,179)" stroke-linejoin="round" d="M 12181,2154 L 12031,2154"/>
 <path fill="none" stroke="rgb(179,179,179)" stroke-linejoin="round" d="M 12181,2154 L 12031,2154"/>
 <path fill="none" stroke="rgb(179,179,179)" stroke-linejoin="round" d="M 12181,1267 L 12031,1267"/>
 <path fill="none" stroke="rgb(179,179,179)" stroke-linejoin="round" d="M 12181,1267 L 12031,1267"/>
 <path fill="none" stroke="rgb(179,179,179)" stroke-linejoin="round" d="M 12181,381 L 12031,381"/>
 <path fill="none" stroke="rgb(179,179,179)" stroke-linejoin="round" d="M 12181,381 L 12031,381"/>
 <path fill="none" stroke="rgb(179,179,179)" stroke-linejoin="round" d="M 12031,8359 L 12031,381"/>
 <path fill="none" stroke="rgb(0,69,134)" stroke-width="80" stroke-linejoin="round" d="M 1958,715 L 3077,838 4196,850 5316,856 6435,851 7554,849 8674,851 9792,851 10911,851 12031,851"/>
 <path fill="rgb(0,69,134)" stroke="none" d="M 1833,590 L 1833,840 2083,840 2083,590 1833,590 Z"/>
 <path fill="none" stroke="rgb(0,69,134)" stroke-linejoin="round" d="M 1833,590 L 1833,840 2083,840 2083,590 1833,590 Z"/>
 <path fill="rgb(0,69,134)" stroke="none" d="M 2952,713 L 2952,963 3202,963 3202,713 2952,713 Z"/>
 <path fill="none" stroke="rgb(0,69,134)" stroke-linejoin="round" d="M 2952,713 L 2952,963 3202,963 3202,713 2952,713 Z"/>
 <path fill="rgb(0,69,134)" stroke="none" d="M 4071,725 L 4071,975 4321,975 4321,725 4071,725 Z"/>
 <path fill="none" stroke="rgb(0,69,134)" stroke-linejoin="round" d="M 4071,725 L 4071,975 4321,975 4321,725 4071,725 Z"/>
 <path fill="rgb(0,69,134)" stroke="none" d="M 5191,731 L 5191,981 5441,981 5441,731 5191,731 Z"/>
 <path fill="none" stroke="rgb(0,69,134)" stroke-linejoin="round" d="M 5191,731 L 5191,981 5441,981 5441,731 5191,731 Z"/>
 <path fill="rgb(0,69,134)" stroke="none" d="M 6310,726 L 6310,976 6560,976 6560,726 6310,726 Z"/>
 <path fill="none" stroke="rgb(0,69,134)" stroke-linejoin="round" d="M 6310,726 L 6310,976 6560,976 6560,726 6310,726 Z"/>
 <path fill="rgb(0,69,134)" stroke="none" d="M 7429,724 L 7429,974 7679,974 7679,724 7429,724 Z"/>
 <path fill="none" stroke="rgb(0,69,134)" stroke-linejoin="round" d="M 7429,724 L 7429,974 7679,974 7679,724 7429,724 Z"/>
 <path fill="rgb(0,69,134)" stroke="none" d="M 8549,726 L 8549,976 8799,976 8799,726 8549,726 Z"/>
 <path fill="none" stroke="rgb(0,69,134)" stroke-linejoin="round" d="M 8549,726 L 8549,976 8799,976 8799,726 8549,726 Z"/>
 <path fill="rgb(0,69,134)" stroke="none" d="M 9667,726 L 9667,976 9917,976 9917,726 9667,726 Z"/>
 <path fill="none" stroke="rgb(0,69,134)" stroke-linejoin="round" d="M 9667,726 L 9667,976 9917,976 9917,726 9667,726 Z"/>
 <path fill="rgb(0,69,134)" stroke="none" d="M 10786,726 L 10786,976 11036,976 11036,726 10786,726 Z"/>
 <path fill="none" stroke="rgb(0,69,134)" stroke-linejoin="round" d="M 10786,726 L 10786,976 11036,976 11036,726 10786,726 Z"/>
 <path fill="rgb(0,69,134)" stroke="none" d="M 11906,726 L 11906,976 12156,976 12156,726 11906,726 Z"/>
 <path fill="none" stroke="rgb(0,69,134)" stroke-linejoin="round" d="M 11906,726 L 11906,976 12156,976 12156,726 11906,726 Z"/>
 <path fill="none" stroke="rgb(255,66,14)" stroke-width="80" stroke-linejoin="round" d="M 1958,7933 L 3077,7206 4196,6195 5316,5078 6435,4157 7554,3359 8674,2650 9792,2029 10911,1249 12031,1001"/>
 <path fill="rgb(255,66,14)" stroke="none" d="M 1833,7933 L 1958,8058 2083,7933 1958,7808 1833,7933 Z"/>
 <path fill="none" stroke="rgb(255,66,14)" stroke-linejoin="round" d="M 1833,7933 L 1958,8058 2083,7933 1958,7808 1833,7933 Z"/>
 <path fill="rgb(255,66,14)" stroke="none" d="M 2952,7206 L 3077,7331 3202,7206 3077,7081 2952,7206 Z"/>
 <path fill="none" stroke="rgb(255,66,14)" stroke-linejoin="round" d="M 2952,7206 L 3077,7331 3202,7206 3077,7081 2952,7206 Z"/>
 <path fill="rgb(255,66,14)" stroke="none" d="M 4071,6195 L 4196,6320 4321,6195 4196,6070 4071,6195 Z"/>
 <path fill="none" stroke="rgb(255,66,14)" stroke-linejoin="round" d="M 4071,6195 L 4196,6320 4321,6195 4196,6070 4071,6195 Z"/>
 <path fill="rgb(255,66,14)" stroke="none" d="M 5191,5078 L 5316,5203 5441,5078 5316,4953 5191,5078 Z"/>
 <path fill="none" stroke="rgb(255,66,14)" stroke-linejoin="round" d="M 5191,5078 L 5316,5203 5441,5078 5316,4953 5191,5078 Z"/>
 <path fill="rgb(255,66,14)" stroke="none" d="M 6310,4157 L 6435,4282 6560,4157 6435,4032 6310,4157 Z"/>
 <path fill="none" stroke="rgb(255,66,14)" stroke-linejoin="round" d="M 6310,4157 L 6435,4282 6560,4157 6435,4032 6310,4157 Z"/>
 <path fill="rgb(255,66,14)" stroke="none" d="M 7429,3359 L 7554,3484 7679,3359 7554,3234 7429,3359 Z"/>
 <path fill="none" stroke="rgb(255,66,14)" stroke-linejoin="round" d="M 7429,3359 L 7554,3484 7679,3359 7554,3234 7429,3359 Z"/>
 <path fill="rgb(255,66,14)" stroke="none" d="M 8549,2650 L 8674,2775 8799,2650 8674,2525 8549,2650 Z"/>
 <path fill="none" stroke="rgb(255,66,14)" stroke-linejoin="round" d="M 8549,2650 L 8674,2775 8799,2650 8674,2525 8549,2650 Z"/>
 <path fill="rgb(255,66,14)" stroke="none" d="M 9667,2029 L 9792,2154 9917,2029 9792,1904 9667,2029 Z"/>
 <path fill="none" stroke="rgb(255,66,14)" stroke-linejoin="round" d="M 9667,2029 L 9792,2154 9917,2029 9792,1904 9667,2029 Z"/>
 <path fill="rgb(255,66,14)" stroke="none" d="M 10786,1249 L 10911,1374 11036,1249 10911,1124 10786,1249 Z"/>
 <path fill="none" stroke="rgb(255,66,14)" stroke-linejoin="round" d="M 10786,1249 L 10911,1374 11036,1249 10911,1124 10786,1249 Z"/>
 <path fill="rgb(255,66,14)" stroke="none" d="M 11906,1001 L 12031,1126 12156,1001 12031,876 11906,1001 Z"/>
 <path fill="none" stroke="rgb(255,66,14)" stroke-linejoin="round" d="M 11906,1001 L 12031,1126 12156,1001 12031,876 11906,1001 Z"/>
 <path fill="none" stroke="rgb(255,211,32)" stroke-width="80" stroke-linejoin="round" d="M 1958,2955 L 3077,2084 4196,1973 5316,1968 6435,1966 7554,1967 8674,1966 9792,1966 10911,1967 12031,1966"/>
 <path fill="rgb(255,211,32)" stroke="none" d="M 1833,2830 L 1958,3080 2083,2830 1833,2830 Z"/>
 <path fill="none" stroke="rgb(255,211,32)" stroke-linejoin="round" d="M 1833,2830 L 1958,3080 2083,2830 1833,2830 Z"/>
 <path fill="rgb(255,211,32)" stroke="none" d="M 2952,1959 L 3077,2209 3202,1959 2952,1959 Z"/>
 <path fill="none" stroke="rgb(255,211,32)" stroke-linejoin="round" d="M 2952,1959 L 3077,2209 3202,1959 2952,1959 Z"/>
 <path fill="rgb(255,211,32)" stroke="none" d="M 4071,1848 L 4196,2098 4321,1848 4071,1848 Z"/>
 <path fill="none" stroke="rgb(255,211,32)" stroke-linejoin="round" d="M 4071,1848 L 4196,2098 4321,1848 4071,1848 Z"/>
 <path fill="rgb(255,211,32)" stroke="none" d="M 5191,1843 L 5316,2093 5441,1843 5191,1843 Z"/>
 <path fill="none" stroke="rgb(255,211,32)" stroke-linejoin="round" d="M 5191,1843 L 5316,2093 5441,1843 5191,1843 Z"/>
 <path fill="rgb(255,211,32)" stroke="none" d="M 6310,1841 L 6435,2091 6560,1841 6310,1841 Z"/>
 <path fill="none" stroke="rgb(255,211,32)" stroke-linejoin="round" d="M 6310,1841 L 6435,2091 6560,1841 6310,1841 Z"/>
 <path fill="rgb(255,211,32)" stroke="none" d="M 7429,1842 L 7554,2092 7679,1842 7429,1842 Z"/>
 <path fill="none" stroke="rgb(255,211,32)" stroke-linejoin="round" d="M 7429,1842 L 7554,2092 7679,1842 7429,1842 Z"/>
 <path fill="rgb(255,211,32)" stroke="none" d="M 8549,1841 L 8674,2091 8799,1841 8549,1841 Z"/>
 <path fill="none" stroke="rgb(255,211,32)" stroke-linejoin="round" d="M 8549,1841 L 8674,2091 8799,1841 8549,1841 Z"/>
 <path fill="rgb(255,211,32)" stroke="none" d="M 9667,1841 L 9792,2091 9917,1841 9667,1841 Z"/>
 <path fill="none" stroke="rgb(255,211,32)" stroke-linejoin="round" d="M 9667,1841 L 9792,2091 9917,1841 9667,1841 Z"/>
 <path fill="rgb(255,211,32)" stroke="none" d="M 10786,1842 L 10911,2092 11036,1842 10786,1842 Z"/>
 <path fill="none" stroke="rgb(255,211,32)" stroke-linejoin="round" d="M 10786,1842 L 10911,2092 11036,1842 10786,1842 Z"/>
 <path fill="rgb(255,211,32)" stroke="none" d="M 11906,1841 L 12031,2091 12156,1841 11906,1841 Z"/>
 <path fill="none" stroke="rgb(255,211,32)" stroke-linejoin="round" d="M 11906,1841 L 12031,2091 12156,1841 11906,1841 Z"/>
 <text class="TextShape"><tspan class="TextParagraph" font-family="Liberation Sans" font-size="353px" font-weight="400"><tspan class="TextPosition" x="1865" y="8927"><tspan fill="rgb(0,0,0)" stroke="none">5</tspan></tspan></tspan></text>
 <text class="TextShape"><tspan class="TextParagraph" font-family="Liberation Sans" font-size="353px" font-weight="400"><tspan class="TextPosition" x="2892" y="8927"><tspan fill="rgb(0,0,0)" stroke="none">10</tspan></tspan></tspan></text>
 <text class="TextShape"><tspan class="TextParagraph" font-family="Liberation Sans" font-size="353px" font-weight="400"><tspan class="TextPosition" x="4011" y="8927"><tspan fill="rgb(0,0,0)" stroke="none">15</tspan></tspan></tspan></text>
 <text class="TextShape"><tspan class="TextParagraph" font-family="Liberation Sans" font-size="353px" font-weight="400"><tspan class="TextPosition" x="5131" y="8927"><tspan fill="rgb(0,0,0)" stroke="none">20</tspan></tspan></tspan></text>
 <text class="TextShape"><tspan class="TextParagraph" font-family="Liberation Sans" font-size="353px" font-weight="400"><tspan class="TextPosition" x="6250" y="8927"><tspan fill="rgb(0,0,0)" stroke="none">25</tspan></tspan></tspan></text>
 <text class="TextShape"><tspan class="TextParagraph" font-family="Liberation Sans" font-size="353px" font-weight="400"><tspan class="TextPosition" x="7369" y="8927"><tspan fill="rgb(0,0,0)" stroke="none">30</tspan></tspan></tspan></text>
 <text class="TextShape"><tspan class="TextParagraph" font-family="Liberation Sans" font-size="353px" font-weight="400"><tspan class="TextPosition" x="8489" y="8927"><tspan fill="rgb(0,0,0)" stroke="none">35</tspan></tspan></tspan></text>
 <text class="TextShape"><tspan class="TextParagraph" font-family="Liberation Sans" font-size="353px" font-weight="400"><tspan class="TextPosition" x="9608" y="8927"><tspan fill="rgb(0,0,0)" stroke="none">40</tspan></tspan></tspan></text>
 <text class="TextShape"><tspan class="TextParagraph" font-family="Liberation Sans" font-size="353px" font-weight="400"><tspan class="TextPosition" x="10727" y="8927"><tspan fill="rgb(0,0,0)" stroke="none">45</tspan></tspan></tspan></text>
 <text class="TextShape"><tspan class="TextParagraph" font-family="Liberation Sans" font-size="353px" font-weight="400"><tspan class="TextPosition" x="11847" y="8927"><tspan fill="rgb(0,0,0)" stroke="none">50</tspan></tspan></tspan></text>
 <text class="TextShape"><tspan class="TextParagraph" font-family="Liberation Sans" font-size="353px" font-weight="400"><tspan class="TextPosition" x="729" y="8480"><tspan fill="rgb(0,0,0)" stroke="none">0.00%</tspan></tspan></tspan></text>
 <text class="TextShape"><tspan class="TextParagraph" font-family="Liberation Sans" font-size="353px" font-weight="400"><tspan class="TextPosition" x="544" y="7682"><tspan fill="rgb(0,0,0)" stroke="none">10.00%</tspan></tspan></tspan></text>
 <text class="TextShape"><tspan class="TextParagraph" font-family="Liberation Sans" font-size="353px" font-weight="400"><tspan class="TextPosition" x="544" y="6884"><tspan fill="rgb(0,0,0)" stroke="none">20.00%</tspan></tspan></tspan></text>
 <text class="TextShape"><tspan class="TextParagraph" font-family="Liberation Sans" font-size="353px" font-weight="400"><tspan class="TextPosition" x="544" y="6086"><tspan fill="rgb(0,0,0)" stroke="none">30.00%</tspan></tspan></tspan></text>
 <text class="TextShape"><tspan class="TextParagraph" font-family="Liberation Sans" font-size="353px" font-weight="400"><tspan class="TextPosition" x="544" y="5288"><tspan fill="rgb(0,0,0)" stroke="none">40.00%</tspan></tspan></tspan></text>
 <text class="TextShape"><tspan class="TextParagraph" font-family="Liberation Sans" font-size="353px" font-weight="400"><tspan class="TextPosition" x="544" y="4490"><tspan fill="rgb(0,0,0)" stroke="none">50.00%</tspan></tspan></tspan></text>
 <text class="TextShape"><tspan class="TextParagraph" font-family="Liberation Sans" font-size="353px" font-weight="400"><tspan class="TextPosition" x="544" y="3692"><tspan fill="rgb(0,0,0)" stroke="none">60.00%</tspan></tspan></tspan></text>
 <text class="TextShape"><tspan class="TextParagraph" font-family="Liberation Sans" font-size="353px" font-weight="400"><tspan class="TextPosition" x="544" y="2894"><tspan fill="rgb(0,0,0)" stroke="none">70.00%</tspan></tspan></tspan></text>
 <text class="TextShape"><tspan class="TextParagraph" font-family="Liberation Sans" font-size="353px" font-weight="400"><tspan class="TextPosition" x="544" y="2096"><tspan fill="rgb(0,0,0)" stroke="none">80.00%</tspan></tspan></tspan></text>
 <text class="TextShape"><tspan class="TextParagraph" font-family="Liberation Sans" font-size="353px" font-weight="400"><tspan class="TextPosition" x="544" y="1298"><tspan fill="rgb(0,0,0)" stroke="none">90.00%</tspan></tspan></tspan></text>
 <text class="TextShape"><tspan class="TextParagraph" font-family="Liberation Sans" font-size="353px" font-weight="400"><tspan class="TextPosition" x="359" y="500"><tspan fill="rgb(0,0,0)" stroke="none">100.00%</tspan></tspan></tspan></text>
 <text class="TextShape"><tspan class="TextParagraph" font-family="Liberation Sans" font-size="353px" font-weight="400"><tspan class="TextPosition" x="12281" y="8480"><tspan fill="rgb(0,0,0)" stroke="none">0</tspan></tspan></tspan></text>
 <text class="TextShape"><tspan class="TextParagraph" font-family="Liberation Sans" font-size="353px" font-weight="400"><tspan class="TextPosition" x="12281" y="7593"><tspan fill="rgb(0,0,0)" stroke="none">0.5</tspan></tspan></tspan></text>
 <text class="TextShape"><tspan class="TextParagraph" font-family="Liberation Sans" font-size="353px" font-weight="400"><tspan class="TextPosition" x="12281" y="6706"><tspan fill="rgb(0,0,0)" stroke="none">1</tspan></tspan></tspan></text>
 <text class="TextShape"><tspan class="TextParagraph" font-family="Liberation Sans" font-size="353px" font-weight="400"><tspan class="TextPosition" x="12281" y="5820"><tspan fill="rgb(0,0,0)" stroke="none">1.5</tspan></tspan></tspan></text>
 <text class="TextShape"><tspan class="TextParagraph" font-family="Liberation Sans" font-size="353px" font-weight="400"><tspan class="TextPosition" x="12281" y="4933"><tspan fill="rgb(0,0,0)" stroke="none">2</tspan></tspan></tspan></text>
 <text class="TextShape"><tspan class="TextParagraph" font-family="Liberation Sans" font-size="353px" font-weight="400"><tspan class="TextPosition" x="12281" y="4047"><tspan fill="rgb(0,0,0)" stroke="none">2.5</tspan></tspan></tspan></text>
 <text class="TextShape"><tspan class="TextParagraph" font-family="Liberation Sans" font-size="353px" font-weight="400"><tspan class="TextPosition" x="12281" y="3160"><tspan fill="rgb(0,0,0)" stroke="none">3</tspan></tspan></tspan></text>
 <text class="TextShape"><tspan class="TextParagraph" font-family="Liberation Sans" font-size="353px" font-weight="400"><tspan class="TextPosition" x="12281" y="2274"><tspan fill="rgb(0,0,0)" stroke="none">3.5</tspan></tspan></tspan></text>
 <text class="TextShape"><tspan class="TextParagraph" font-family="Liberation Sans" font-size="353px" font-weight="400"><tspan class="TextPosition" x="12281" y="1387"><tspan fill="rgb(0,0,0)" stroke="none">4</tspan></tspan></tspan></text>
 <text class="TextShape"><tspan class="TextParagraph" font-family="Liberation Sans" font-size="353px" font-weight="400"><tspan class="TextPosition" x="12281" y="501"><tspan fill="rgb(0,0,0)" stroke="none">4.5</tspan></tspan></tspan></text>
 <path fill="none" stroke="rgb(0,69,134)" stroke-width="80" stroke-linejoin="round" d="M 14140,4096 L 14940,4096"/>
 <path fill="rgb(0,69,134)" stroke="none" d="M 14434,3991 L 14434,4202 14645,4202 14645,3991 14434,3991 Z"/>
 <path fill="none" stroke="rgb(0,69,134)" stroke-linejoin="round" d="M 14434,3991 L 14434,4202 14645,4202 14645,3991 14434,3991 Z"/>
 <path fill="none" stroke="rgb(255,66,14)" stroke-width="80" stroke-linejoin="round" d="M 14140,4594 L 14940,4594"/>
 <path fill="rgb(255,66,14)" stroke="none" d="M 14434,4594 L 14540,4699 14645,4594 14540,4489 14434,4594 Z"/>
 <path fill="none" stroke="rgb(255,66,14)" stroke-linejoin="round" d="M 14434,4594 L 14540,4699 14645,4594 14540,4489 14434,4594 Z"/>
 <path fill="none" stroke="rgb(255,211,32)" stroke-width="80" stroke-linejoin="round" d="M 14140,5091 L 14940,5091"/>
 <path fill="rgb(255,211,32)" stroke="none" d="M 14434,4986 L 14540,5197 14645,4986 14434,4986 Z"/>
 <path fill="none" stroke="rgb(255,211,32)" stroke-linejoin="round" d="M 14434,4986 L 14540,5197 14645,4986 14434,4986 Z"/>
 <text class="TextShape"><tspan class="TextParagraph" font-family="Liberation Sans" font-size="353px" font-weight="400"><tspan class="TextPosition" x="15040" y="4216"><tspan fill="rgb(0,0,0)" stroke="none">Zhoda</tspan></tspan></tspan></text>
 <text class="TextShape"><tspan class="TextParagraph" font-family="Liberation Sans" font-size="353px" font-weight="400"><tspan class="TextPosition" x="15040" y="4713"><tspan fill="rgb(0,0,0)" stroke="none">Čas</tspan></tspan></tspan></text>
 <text class="TextShape"><tspan class="TextParagraph" font-family="Liberation Sans" font-size="353px" font-weight="400"><tspan class="TextPosition" x="15040" y="5211"><tspan fill="rgb(0,0,0)" stroke="none">Podiel veľkosti</tspan></tspan></tspan></text>
 <text class="TextShape" transform="translate(13498,5084) rotate(-90) translate(-13498,-5084)"><tspan class="TextParagraph" font-family="Liberation Sans" font-size="318px" font-weight="400"><tspan class="TextPosition" x="13498" y="5084"><tspan fill="rgb(0,0,0)" stroke="none">Čas [s]</tspan></tspan></tspan></text>
</svg>