<?xml version="1.0" encoding="UTF-8"?>
<!DOCTYPE svg PUBLIC "-//W3C//DTD SVG 1.1//EN" "http://www.w3.org/Graphics/SVG/1.1/DTD/svg11.dtd">
<svg width="176mm" height="92mm" viewBox="0 0 17600 9200" version="1.1" xmlns="http://www.w3.org/2000/svg" stroke-width="28.222" stroke-linejoin="round" xml:space="preserve">
 <path fill="rgb(255,255,255)" stroke="none" d="M 8819,9190 L 0,9190 0,0 17637,0 17637,9190 8819,9190 Z"/>
 <path fill="none" stroke="rgb(179,179,179)" stroke-linejoin="round" d="M 6989,8360 L 1952,8360 1952,382 12025,382 12025,8360 6989,8360 Z"/>
 <path fill="none" stroke="rgb(179,179,179)" stroke-linejoin="round" d="M 12025,8359 L 1952,8359"/>
 <path fill="none" stroke="rgb(179,179,179)" stroke-linejoin="round" d="M 12025,7561 L 1952,7561"/>
 <path fill="none" stroke="rgb(179,179,179)" stroke-linejoin="round" d="M 12025,6763 L 1952,6763"/>
 <path fill="none" stroke="rgb(179,179,179)" stroke-linejoin="round" d="M 12025,5965 L 1952,5965"/>
 <path fill="none" stroke="rgb(179,179,179)" stroke-linejoin="round" d="M 12025,5167 L 1952,5167"/>
 <path fill="none" stroke="rgb(179,179,179)" stroke-linejoin="round" d="M 12025,4370 L 1952,4370"/>
 <path fill="none" stroke="rgb(179,179,179)" stroke-linejoin="round" d="M 12025,3572 L 1952,3572"/>
 <path fill="none" stroke="rgb(179,179,179)" stroke-linejoin="round" d="M 12025,2774 L 1952,2774"/>
 <path fill="none" stroke="rgb(179,179,179)" stroke-linejoin="round" d="M 12025,1976 L 1952,1976"/>
 <path fill="none" stroke="rgb(179,179,179)" stroke-linejoin="round" d="M 12025,1178 L 1952,1178"/>
 <path fill="none" stroke="rgb(179,179,179)" stroke-linejoin="round" d="M 12025,380 L 1952,380"/>
 <path fill="none" stroke="rgb(179,179,179)" stroke-linejoin="round" d="M 1952,8509 L 1952,8359"/>
 <path fill="none" stroke="rgb(179,179,179)" stroke-linejoin="round" d="M 1952,8509 L 1952,8359"/>
 <path fill="none" stroke="rgb(179,179,179)" stroke-linejoin="round" d="M 3071,8509 L 3071,8359"/>
 <path fill="none" stroke="rgb(179,179,179)" stroke-linejoin="round" d="M 3071,8509 L 3071,8359"/>
 <path fill="none" stroke="rgb(179,179,179)" stroke-linejoin="round" d="M 4190,8509 L 4190,8359"/>
 <path fill="none" stroke="rgb(179,179,179)" stroke-linejoin="round" d="M 4190,8509 L 4190,8359"/>
 <path fill="none" stroke="rgb(179,179,179)" stroke-linejoin="round" d="M 5310,8509 L 5310,8359"/>
 <path fill="none" stroke="rgb(179,179,179)" stroke-linejoin="round" d="M 5310,8509 L 5310,8359"/>
 <path fill="none" stroke="rgb(179,179,179)" stroke-linejoin="round" d="M 6429,8509 L 6429,8359"/>
 <path fill="none" stroke="rgb(179,179,179)" stroke-linejoin="round" d="M 6429,8509 L 6429,8359"/>
 <path fill="none" stroke="rgb(179,179,179)" stroke-linejoin="round" d="M 7548,8509 L 7548,8359"/>
 <path fill="none" stroke="rgb(179,179,179)" stroke-linejoin="round" d="M 7548,8509 L 7548,8359"/>
 <path fill="none" stroke="rgb(179,179,179)" stroke-linejoin="round" d="M 8668,8509 L 8668,8359"/>
 <path fill="none" stroke="rgb(179,179,179)" stroke-linejoin="round" d="M 8668,8509 L 8668,8359"/>
 <path fill="none" stroke="rgb(179,179,179)" stroke-linejoin="round" d="M 9786,8509 L 9786,8359"/>
 <path fill="none" stroke="rgb(179,179,179)" stroke-linejoin="round" d="M 9786,8509 L 9786,8359"/>
 <path fill="none" stroke="rgb(179,179,179)" stroke-linejoin="round" d="M 10905,8509 L 10905,8359"/>
 <path fill="none" stroke="rgb(179,179,179)" stroke-linejoin="round" d="M 10905,8509 L 10905,8359"/>
 <path fill="none" stroke="rgb(179,179,179)" stroke-linejoin="round" d="M 12025,8509 L 12025,8359"/>
 <path fill="none" stroke="rgb(179,179,179)" stroke-linejoin="round" d="M 12025,8509 L 12025,8359"/>
 <path fill="none" stroke="rgb(179,179,179)" stroke-linejoin="round" d="M 1952,8359 L 12025,8359"/>
 <path fill="none" stroke="rgb(179,179,179)" stroke-linejoin="round" d="M 1802,8359 L 1952,8359"/>
 <path fill="none" stroke="rgb(179,179,179)" stroke-linejoin="round" d="M 1802,8359 L 1952,8359"/>
 <path fill="none" stroke="rgb(179,179,179)" stroke-linejoin="round" d="M 1802,7561 L 1952,7561"/>
 <path fill="none" stroke="rgb(179,179,179)" stroke-linejoin="round" d="M 1802,7561 L 1952,7561"/>
 <path fill="none" stroke="rgb(179,179,179)" stroke-linejoin="round" d="M 1802,6763 L 1952,6763"/>
 <path fill="none" stroke="rgb(179,179,179)" stroke-linejoin="round" d="M 1802,6763 L 1952,6763"/>
 <path fill="none" stroke="rgb(179,179,179)" stroke-linejoin="round" d="M 1802,5965 L 1952,5965"/>
 <path fill="none" stroke="rgb(179,179,179)" stroke-linejoin="round" d="M 1802,5965 L 1952,5965"/>
 <path fill="none" stroke="rgb(179,179,179)" stroke-linejoin="round" d="M 1802,5167 L 1952,5167"/>
 <path fill="none" stroke="rgb(179,179,179)" stroke-linejoin="round" d="M 1802,5167 L 1952,5167"/>
 <path fill="none" stroke="rgb(179,179,179)" stroke-linejoin="round" d="M 1802,4370 L 1952,4370"/>
 <path fill="none" stroke="rgb(179,179,179)" stroke-linejoin="round" d="M 1802,4370 L 1952,4370"/>
 <path fill="none" stroke="rgb(179,179,179)" stroke-linejoin="round" d="M 1802,3572 L 1952,3572"/>
 <path fill="none" stroke="rgb(179,179,179)" stroke-linejoin="round" d="M 1802,3572 L 1952,3572"/>
 <path fill="none" stroke="rgb(179,179,179)" stroke-linejoin="round" d="M 1802,2774 L 1952,2774"/>
 <path fill="none" stroke="rgb(179,179,179)" stroke-linejoin="round" d="M 1802,2774 L 1952,2774"/>
 <path fill="none" stroke="rgb(179,179,179)" stroke-linejoin="round" d="M 1802,1976 L 1952,1976"/>
 <path fill="none" stroke="rgb(179,179,179)" stroke-linejoin="round" d="M 1802,1976 L 1952,1976"/>
 <path fill="none" stroke="rgb(179,179,179)" stroke-linejoin="round" d="M 1802,1178 L 1952,1178"/>
 <path fill="none" stroke="rgb(179,179,179)" stroke-linejoin="round" d="M 1802,1178 L 1952,1178"/>
 <path fill="none" stroke="rgb(179,179,179)" stroke-linejoin="round" d="M 1802,380 L 1952,380"/>
 <path fill="none" stroke="rgb(179,179,179)" stroke-linejoin="round" d="M 1802,380 L 1952,380"/>
 <path fill="none" stroke="rgb(179,179,179)" stroke-linejoin="round" d="M 1952,8359 L 1952,380"/>
 <path fill="none" stroke="rgb(179,179,179)" stroke-linejoin="round" d="M 12175,8359 L 12025,8359"/>
 <path fill="none" stroke="rgb(179,179,179)" stroke-linejoin="round" d="M 12175,8359 L 12025,8359"/>
 <path fill="none" stroke="rgb(179,179,179)" stroke-linejoin="round" d="M 12175,7029 L 12025,7029"/>
 <path fill="none" stroke="rgb(179,179,179)" stroke-linejoin="round" d="M 12175,7029 L 12025,7029"/>
 <path fill="none" stroke="rgb(179,179,179)" stroke-linejoin="round" d="M 12175,5699 L 12025,5699"/>
 <path fill="none" stroke="rgb(179,179,179)" stroke-linejoin="round" d="M 12175,5699 L 12025,5699"/>
 <path fill="none" stroke="rgb(179,179,179)" stroke-linejoin="round" d="M 12175,4370 L 12025,4370"/>
 <path fill="none" stroke="rgb(179,179,179)" stroke-linejoin="round" d="M 12175,4370 L 12025,4370"/>
 <path fill="none" stroke="rgb(179,179,179)" stroke-linejoin="round" d="M 12175,3040 L 12025,3040"/>
 <path fill="none" stroke="rgb(179,179,179)" stroke-linejoin="round" d="M 12175,3040 L 12025,3040"/>
 <path fill="none" stroke="rgb(179,179,179)" stroke-linejoin="round" d="M 12175,1710 L 12025,1710"/>
 <path fill="none" stroke="rgb(179,179,179)" stroke-linejoin="round" d="M 12175,1710 L 12025,1710"/>
 <path fill="none" stroke="rgb(179,179,179)" stroke-linejoin="round" d="M 12175,380 L 12025,380"/>
 <path fill="none" stroke="rgb(179,179,179)" stroke-linejoin="round" d="M 12175,380 L 12025,380"/>
 <path fill="none" stroke="rgb(179,179,179)" stroke-linejoin="round" d="M 12025,8359 L 12025,380"/>
 <path fill="none" stroke="rgb(0,69,134)" stroke-width="80" stroke-linejoin="round" d="M 1952,903 L 3071,891 4190,811 5310,696 6429,572 7548,559 8668,544 9786,542 10905,549 12025,556"/>
 <path fill="rgb(0,69,134)" stroke="none" d="M 1827,778 L 1827,1028 2077,1028 2077,778 1827,778 Z"/>
 <path fill="none" stroke="rgb(0,69,134)" stroke-linejoin="round" d="M 1827,778 L 1827,1028 2077,1028 2077,778 1827,778 Z"/>
 <path fill="rgb(0,69,134)" stroke="none" d="M 2946,766 L 2946,1016 3196,1016 3196,766 2946,766 Z"/>
 <path fill="none" stroke="rgb(0,69,134)" stroke-linejoin="round" d="M 2946,766 L 2946,1016 3196,1016 3196,766 2946,766 Z"/>
 <path fill="rgb(0,69,134)" stroke="none" d="M 4065,686 L 4065,936 4315,936 4315,686 4065,686 Z"/>
 <path fill="none" stroke="rgb(0,69,134)" stroke-linejoin="round" d="M 4065,686 L 4065,936 4315,936 4315,686 4065,686 Z"/>
 <path fill="rgb(0,69,134)" stroke="none" d="M 5185,571 L 5185,821 5435,821 5435,571 5185,571 Z"/>
 <path fill="none" stroke="rgb(0,69,134)" stroke-linejoin="round" d="M 5185,571 L 5185,821 5435,821 5435,571 5185,571 Z"/>
 <path fill="rgb(0,69,134)" stroke="none" d="M 6304,447 L 6304,697 6554,697 6554,447 6304,447 Z"/>
 <path fill="none" stroke="rgb(0,69,134)" stroke-linejoin="round" d="M 6304,447 L 6304,697 6554,697 6554,447 6304,447 Z"/>
 <path fill="rgb(0,69,134)" stroke="none" d="M 7423,434 L 7423,684 7673,684 7673,434 7423,434 Z"/>
 <path fill="none" stroke="rgb(0,69,134)" stroke-linejoin="round" d="M 7423,434 L 7423,684 7673,684 7673,434 7423,434 Z"/>
 <path fill="rgb(0,69,134)" stroke="none" d="M 8543,419 L 8543,669 8793,669 8793,419 8543,419 Z"/>
 <path fill="none" stroke="rgb(0,69,134)" stroke-linejoin="round" d="M 8543,419 L 8543,669 8793,669 8793,419 8543,419 Z"/>
 <path fill="rgb(0,69,134)" stroke="none" d="M 9661,417 L 9661,667 9911,667 9911,417 9661,417 Z"/>
 <path fill="none" stroke="rgb(0,69,134)" stroke-linejoin="round" d="M 9661,417 L 9661,667 9911,667 9911,417 9661,417 Z"/>
 <path fill="rgb(0,69,134)" stroke="none" d="M 10780,424 L 10780,674 11030,674 11030,424 10780,424 Z"/>
 <path fill="none" stroke="rgb(0,69,134)" stroke-linejoin="round" d="M 10780,424 L 10780,674 11030,674 11030,424 10780,424 Z"/>
 <path fill="rgb(0,69,134)" stroke="none" d="M 11900,431 L 11900,681 12150,681 12150,431 11900,431 Z"/>
 <path fill="none" stroke="rgb(0,69,134)" stroke-linejoin="round" d="M 11900,431 L 11900,681 12150,681 12150,431 11900,431 Z"/>
 <path fill="none" stroke="rgb(255,66,14)" stroke-width="80" stroke-linejoin="round" d="M 1952,1790 L 3071,3678 4190,6231 5310,7507 6429,7880 7548,7986 8668,8093 9786,8119 10905,8146 12025,8172"/>
 <path fill="rgb(255,66,14)" stroke="none" d="M 1827,1790 L 1952,1915 2077,1790 1952,1665 1827,1790 Z"/>
 <path fill="none" stroke="rgb(255,66,14)" stroke-linejoin="round" d="M 1827,1790 L 1952,1915 2077,1790 1952,1665 1827,1790 Z"/>
 <path fill="rgb(255,66,14)" stroke="none" d="M 2946,3678 L 3071,3803 3196,3678 3071,3553 2946,3678 Z"/>
 <path fill="none" stroke="rgb(255,66,14)" stroke-linejoin="round" d="M 2946,3678 L 3071,3803 3196,3678 3071,3553 2946,3678 Z"/>
 <path fill="rgb(255,66,14)" stroke="none" d="M 4065,6231 L 4190,6356 4315,6231 4190,6106 4065,6231 Z"/>
 <path fill="none" stroke="rgb(255,66,14)" stroke-linejoin="round" d="M 4065,6231 L 4190,6356 4315,6231 4190,6106 4065,6231 Z"/>
 <path fill="rgb(255,66,14)" stroke="none" d="M 5185,7507 L 5310,7632 5435,7507 5310,7382 5185,7507 Z"/>
 <path fill="none" stroke="rgb(255,66,14)" stroke-linejoin="round" d="M 5185,7507 L 5310,7632 5435,7507 5310,7382 5185,7507 Z"/>
 <path fill="rgb(255,66,14)" stroke="none" d="M 6304,7880 L 6429,8005 6554,7880 6429,7755 6304,7880 Z"/>
 <path fill="none" stroke="rgb(255,66,14)" stroke-linejoin="round" d="M 6304,7880 L 6429,8005 6554,7880 6429,7755 6304,7880 Z"/>
 <path fill="rgb(255,66,14)" stroke="none" d="M 7423,7986 L 7548,8111 7673,7986 7548,7861 7423,7986 Z"/>
 <path fill="none" stroke="rgb(255,66,14)" stroke-linejoin="round" d="M 7423,7986 L 7548,8111 7673,7986 7548,7861 7423,7986 Z"/>
 <path fill="rgb(255,66,14)" stroke="none" d="M 8543,8093 L 8668,8218 8793,8093 8668,7968 8543,8093 Z"/>
 <path fill="none" stroke="rgb(255,66,14)" stroke-linejoin="round" d="M 8543,8093 L 8668,8218 8793,8093 8668,7968 8543,8093 Z"/>
 <path fill="rgb(255,66,14)" stroke="none" d="M 9661,8119 L 9786,8244 9911,8119 9786,7994 9661,8119 Z"/>
 <path fill="none" stroke="rgb(255,66,14)" stroke-linejoin="round" d="M 9661,8119 L 9786,8244 9911,8119 9786,7994 9661,8119 Z"/>
 <path fill="rgb(255,66,14)" stroke="none" d="M 10780,8146 L 10905,8271 11030,8146 10905,8021 10780,8146 Z"/>
 <path fill="none" stroke="rgb(255,66,14)" stroke-linejoin="round" d="M 10780,8146 L 10905,8271 11030,8146 10905,8021 10780,8146 Z"/>
 <path fill="rgb(255,66,14)" stroke="none" d="M 11900,8172 L 12025,8297 12150,8172 12025,8047 11900,8172 Z"/>
 <path fill="none" stroke="rgb(255,66,14)" stroke-linejoin="round" d="M 11900,8172 L 12025,8297 12150,8172 12025,8047 11900,8172 Z"/>
 <path fill="none" stroke="rgb(255,211,32)" stroke-width="80" stroke-linejoin="round" d="M 1952,1937 L 3071,1971 4190,2444 5310,3219 6429,4123 7548,4479 8668,4885 9786,5161 10905,5624 12025,6211"/>
 <path fill="rgb(255,211,32)" stroke="none" d="M 1827,1812 L 1952,2062 2077,1812 1827,1812 Z"/>
 <path fill="none" stroke="rgb(255,211,32)" stroke-linejoin="round" d="M 1827,1812 L 1952,2062 2077,1812 1827,1812 Z"/>
 <path fill="rgb(255,211,32)" stroke="none" d="M 2946,1846 L 3071,2096 3196,1846 2946,1846 Z"/>
 <path fill="none" stroke="rgb(255,211,32)" stroke-linejoin="round" d="M 2946,1846 L 3071,2096 3196,1846 2946,1846 Z"/>
 <path fill="rgb(255,211,32)" stroke="none" d="M 4065,2319 L 4190,2569 4315,2319 4065,2319 Z"/>
 <path fill="none" stroke="rgb(255,211,32)" stroke-linejoin="round" d="M 4065,2319 L 4190,2569 4315,2319 4065,2319 Z"/>
 <path fill="rgb(255,211,32)" stroke="none" d="M 5185,3094 L 5310,3344 5435,3094 5185,3094 Z"/>
 <path fill="none" stroke="rgb(255,211,32)" stroke-linejoin="round" d="M 5185,3094 L 5310,3344 5435,3094 5185,3094 Z"/>
 <path fill="rgb(255,211,32)" stroke="none" d="M 6304,3998 L 6429,4248 6554,3998 6304,3998 Z"/>
 <path fill="none" stroke="rgb(255,211,32)" stroke-linejoin="round" d="M 6304,3998 L 6429,4248 6554,3998 6304,3998 Z"/>
 <path fill="rgb(255,211,32)" stroke="none" d="M 7423,4354 L 7548,4603 7673,4354 7423,4354 Z"/>
 <path fill="none" stroke="rgb(255,211,32)" stroke-linejoin="round" d="M 7423,4354 L 7548,4603 7673,4354 7423,4354 Z"/>
 <path fill="rgb(255,211,32)" stroke="none" d="M 8543,4760 L 8668,5010 8793,4760 8543,4760 Z"/>
 <path fill="none" stroke="rgb(255,211,32)" stroke-linejoin="round" d="M 8543,4760 L 8668,5010 8793,4760 8543,4760 Z"/>
 <path fill="rgb(255,211,32)" stroke="none" d="M 9661,5036 L 9786,5286 9911,5036 9661,5036 Z"/>
 <path fill="none" stroke="rgb(255,211,32)" stroke-linejoin="round" d="M 9661,5036 L 9786,5286 9911,5036 9661,5036 Z"/>
 <path fill="rgb(255,211,32)" stroke="none" d="M 10780,5499 L 10905,5749 11030,5499 10780,5499 Z"/>
 <path fill="none" stroke="rgb(255,211,32)" stroke-linejoin="round" d="M 10780,5499 L 10905,5749 11030,5499 10780,5499 Z"/>
 <path fill="rgb(255,211,32)" stroke="none" d="M 11900,6086 L 12025,6336 12150,6086 11900,6086 Z"/>
 <path fill="none" stroke="rgb(255,211,32)" stroke-linejoin="round" d="M 11900,6086 L 12025,6336 12150,6086 11900,6086 Z"/>
 <text class="TextShape"><tspan class="TextParagraph" font-family="Liberation Sans, sans-serif" font-size="353px" font-weight="400"><tspan class="TextPosition" x="1859" y="8927"><tspan fill="rgb(0,0,0)" stroke="none">1</tspan></tspan></tspan></text>
 <text class="TextShape"><tspan class="TextParagraph" font-family="Liberation Sans, sans-serif" font-size="353px" font-weight="400"><tspan class="TextPosition" x="2978" y="8927"><tspan fill="rgb(0,0,0)" stroke="none">2</tspan></tspan></tspan></text>
 <text class="TextShape"><tspan class="TextParagraph" font-family="Liberation Sans, sans-serif" font-size="353px" font-weight="400"><tspan class="TextPosition" x="4097" y="8927"><tspan fill="rgb(0,0,0)" stroke="none">3</tspan></tspan></tspan></text>
 <text class="TextShape"><tspan class="TextParagraph" font-family="Liberation Sans, sans-serif" font-size="353px" font-weight="400"><tspan class="TextPosition" x="5217" y="8927"><tspan fill="rgb(0,0,0)" stroke="none">4</tspan></tspan></tspan></text>
 <text class="TextShape"><tspan class="TextParagraph" font-family="Liberation Sans, sans-serif" font-size="353px" font-weight="400"><tspan class="TextPosition" x="6336" y="8927"><tspan fill="rgb(0,0,0)" stroke="none">5</tspan></tspan></tspan></text>
 <text class="TextShape"><tspan class="TextParagraph" font-family="Liberation Sans, sans-serif" font-size="353px" font-weight="400"><tspan class="TextPosition" x="7455" y="8927"><tspan fill="rgb(0,0,0)" stroke="none">6</tspan></tspan></tspan></text>
 <text class="TextShape"><tspan class="TextParagraph" font-family="Liberation Sans, sans-serif" font-size="353px" font-weight="400"><tspan class="TextPosition" x="8575" y="8927"><tspan fill="rgb(0,0,0)" stroke="none">7</tspan></tspan></tspan></text>
 <text class="TextShape"><tspan class="TextParagraph" font-family="Liberation Sans, sans-serif" font-size="353px" font-weight="400"><tspan class="TextPosition" x="9694" y="8927"><tspan fill="rgb(0,0,0)" stroke="none">8</tspan></tspan></tspan></text>
 <text class="TextShape"><tspan class="TextParagraph" font-family="Liberation Sans, sans-serif" font-size="353px" font-weight="400"><tspan class="TextPosition" x="10813" y="8927"><tspan fill="rgb(0,0,0)" stroke="none">9</tspan></tspan></tspan></text>
 <text class="TextShape"><tspan class="TextParagraph" font-family="Liberation Sans, sans-serif" font-size="353px" font-weight="400"><tspan class="TextPosition" x="11841" y="8927"><tspan fill="rgb(0,0,0)" stroke="none">10</tspan></tspan></tspan></text>
 <text class="TextShape"><tspan class="TextParagraph" font-family="Liberation Sans, sans-serif" font-size="353px" font-weight="400"><tspan class="TextPosition" x="723" y="8480"><tspan fill="rgb(0,0,0)" stroke="none">0.00%</tspan></tspan></tspan></text>
 <text class="TextShape"><tspan class="TextParagraph" font-family="Liberation Sans, sans-serif" font-size="353px" font-weight="400"><tspan class="TextPosition" x="538" y="7682"><tspan fill="rgb(0,0,0)" stroke="none">10.00%</tspan></tspan></tspan></text>
 <text class="TextShape"><tspan class="TextParagraph" font-family="Liberation Sans, sans-serif" font-size="353px" font-weight="400"><tspan class="TextPosition" x="538" y="6884"><tspan fill="rgb(0,0,0)" stroke="none">20.00%</tspan></tspan></tspan></text>
 <text class="TextShape"><tspan class="TextParagraph" font-family="Liberation Sans, sans-serif" font-size="353px" font-weight="400"><tspan class="TextPosition" x="538" y="6086"><tspan fill="rgb(0,0,0)" stroke="none">30.00%</tspan></tspan></tspan></text>
 <text class="TextShape"><tspan class="TextParagraph" font-family="Liberation Sans, sans-serif" font-size="353px" font-weight="400"><tspan class="TextPosition" x="538" y="5288"><tspan fill="rgb(0,0,0)" stroke="none">40.00%</tspan></tspan></tspan></text>
 <text class="TextShape"><tspan class="TextParagraph" font-family="Liberation Sans, sans-serif" font-size="353px" font-weight="400"><tspan class="TextPosition" x="538" y="4490"><tspan fill="rgb(0,0,0)" stroke="none">50.00%</tspan></tspan></tspan></text>
 <text class="TextShape"><tspan class="TextParagraph" font-family="Liberation Sans, sans-serif" font-size="353px" font-weight="400"><tspan class="TextPosition" x="538" y="3692"><tspan fill="rgb(0,0,0)" stroke="none">60.00%</tspan></tspan></tspan></text>
 <text class="TextShape"><tspan class="TextParagraph" font-family="Liberation Sans, sans-serif" font-size="353px" font-weight="400"><tspan class="TextPosition" x="538" y="2894"><tspan fill="rgb(0,0,0)" stroke="none">70.00%</tspan></tspan></tspan></text>
 <text class="TextShape"><tspan class="TextParagraph" font-family="Liberation Sans, sans-serif" font-size="353px" font-weight="400"><tspan class="TextPosition" x="538" y="2096"><tspan fill="rgb(0,0,0)" stroke="none">80.00%</tspan></tspan></tspan></text>
 <text class="TextShape"><tspan class="TextParagraph" font-family="Liberation Sans, sans-serif" font-size="353px" font-weight="400"><tspan class="TextPosition" x="538" y="1298"><tspan fill="rgb(0,0,0)" stroke="none">90.00%</tspan></tspan></tspan></text>
 <text class="TextShape"><tspan class="TextParagraph" font-family="Liberation Sans, sans-serif" font-size="353px" font-weight="400"><tspan class="TextPosition" x="353" y="500"><tspan fill="rgb(0,0,0)" stroke="none">100.00%</tspan></tspan></tspan></text>
 <text class="TextShape"><tspan class="TextParagraph" font-family="Liberation Sans, sans-serif" font-size="353px" font-weight="400"><tspan class="TextPosition" x="12275" y="8480"><tspan fill="rgb(0,0,0)" stroke="none">0</tspan></tspan></tspan></text>
 <text class="TextShape"><tspan class="TextParagraph" font-family="Liberation Sans, sans-serif" font-size="353px" font-weight="400"><tspan class="TextPosition" x="12275" y="7150"><tspan fill="rgb(0,0,0)" stroke="none">0.5</tspan></tspan></tspan></text>
 <text class="TextShape"><tspan class="TextParagraph" font-family="Liberation Sans, sans-serif" font-size="353px" font-weight="400"><tspan class="TextPosition" x="12275" y="5820"><tspan fill="rgb(0,0,0)" stroke="none">1</tspan></tspan></tspan></text>
 <text class="TextShape"><tspan class="TextParagraph" font-family="Liberation Sans, sans-serif" font-size="353px" font-weight="400"><tspan class="TextPosition" x="12275" y="4490"><tspan fill="rgb(0,0,0)" stroke="none">1.5</tspan></tspan></tspan></text>
 <text class="TextShape"><tspan class="TextParagraph" font-family="Liberation Sans, sans-serif" font-size="353px" font-weight="400"><tspan class="TextPosition" x="12275" y="3160"><tspan fill="rgb(0,0,0)" stroke="none">2</tspan></tspan></tspan></text>
 <text class="TextShape"><tspan class="TextParagraph" font-family="Liberation Sans, sans-serif" font-size="353px" font-weight="400"><tspan class="TextPosition" x="12275" y="1830"><tspan fill="rgb(0,0,0)" stroke="none">2.5</tspan></tspan></tspan></text>
 <text class="TextShape"><tspan class="TextParagraph" font-family="Liberation Sans, sans-serif" font-size="353px" font-weight="400"><tspan class="TextPosition" x="12275" y="500"><tspan fill="rgb(0,0,0)" stroke="none">3</tspan></tspan></tspan></text>
 <path fill="none" stroke="rgb(0,69,134)" stroke-width="80" stroke-linejoin="round" d="M 14134,4096 L 14934,4096"/>
 <path fill="rgb(0,69,134)" stroke="none" d="M 14428,3991 L 14428,4202 14639,4202 14639,3991 14428,3991 Z"/>
 <path fill="none" stroke="rgb(0,69,134)" stroke-linejoin="round" d="M 14428,3991 L 14428,4202 14639,4202 14639,3991 14428,3991 Z"/>
 <path fill="none" stroke="rgb(255,66,14)" stroke-width="80" stroke-linejoin="round" d="M 14134,4594 L 14934,4594"/>
 <path fill="rgb(255,66,14)" stroke="none" d="M 14428,4594 L 14534,4699 14639,4594 14534,4489 14428,4594 Z"/>
 <path fill="none" stroke="rgb(255,66,14)" stroke-linejoin="round" d="M 14428,4594 L 14534,4699 14639,4594 14534,4489 14428,4594 Z"/>
 <path fill="none" stroke="rgb(255,211,32)" stroke-width="80" stroke-linejoin="round" d="M 14134,5091 L 14934,5091"/>
 <path fill="rgb(255,211,32)" stroke="none" d="M 14428,4986 L 14534,5197 14639,4986 14428,4986 Z"/>
 <path fill="none" stroke="rgb(255,211,32)" stroke-linejoin="round" d="M 14428,4986 L 14534,5197 14639,4986 14428,4986 Z"/>
 <text class="TextShape"><tspan class="TextParagraph" font-family="Liberation Sans, sans-serif" font-size="353px" font-weight="400"><tspan class="TextPosition" x="15034" y="4216"><tspan fill="rgb(0,0,0)" stroke="none">Zhoda</tspan></tspan></tspan></text>
 <text class="TextShape"><tspan class="TextParagraph" font-family="Liberation Sans, sans-serif" font-size="353px" font-weight="400"><tspan class="TextPosition" x="15034" y="4713"><tspan fill="rgb(0,0,0)" stroke="none">Čas</tspan></tspan></tspan></text>
 <text class="TextShape"><tspan class="TextParagraph" font-family="Liberation Sans, sans-serif" font-size="353px" font-weight="400"><tspan class="TextPosition" x="15034" y="5211"><tspan fill="rgb(0,0,0)" stroke="none">Podiel veľkosti</tspan></tspan></tspan></text>
 <text class="TextShape" transform="translate(13492,5084) rotate(-90) translate(-13492,-5084)"><tspan class="TextParagraph" font-family="Liberation Sans, sans-serif" font-size="318px" font-weight="400"><tspan class="TextPosition" x="13492" y="5084"><tspan fill="rgb(0,0,0)" stroke="none">Čas [s]</tspan></tspan></tspan></text>
</svg>